<?xml version="1.0" standalone="no"?>
<!-- Generator: Adobe Fireworks 10, Export SVG Extension by Aaron Beall (http://fireworks.abeall.com) . Version: 0.6.1  -->
<!DOCTYPE svg PUBLIC "-//W3C//DTD SVG 1.1//EN" "http://www.w3.org/Graphics/SVG/1.1/DTD/svg11.dtd">
<svg id="logo-P%E1gina%201" viewBox="0 0 100 124" style="background-color:#eeeeee" version="1.1"
	xmlns="http://www.w3.org/2000/svg" xmlns:xlink="http://www.w3.org/1999/xlink" xml:space="preserve"
	x="0px" y="0px" width="100px" height="124px"
>
	<g id="Capa%201">
		<g>
			<path d="M 49.2181 29.6784 C 53.0034 28.2801 57.2829 27.5751 61.539 27.5598 C 65.7887 27.5746 70.0631 28.2781 73.8437 29.6722 C 73.9689 29.725 73.9757 29.5658 73.9757 29.5658 L 75.2095 13.7986 C 75.2095 13.7986 75.2283 13.7043 75.1286 13.7043 C 75.0289 13.7043 74.9031 13.7043 74.7867 13.7043 C 74.6714 13.7043 74.6422 13.7878 74.6422 13.7878 L 69.9576 23.6967 C 69.9576 23.6967 69.9211 23.7999 69.8162 23.7645 C 69.0918 23.5999 67.6984 23.3505 67.6143 23.3361 C 67.5303 23.3219 67.5303 23.2224 67.5303 23.2224 L 65.8388 13.072 C 65.8388 13.072 65.8279 13 65.7679 13 C 65.7078 13 65.6447 13 65.5936 13 C 65.5414 13 65.52 13.0648 65.52 13.0648 L 62.7195 22.7605 C 62.7195 22.7605 62.6934 22.8586 62.6057 22.8573 C 62.5175 22.8553 61.8949 22.8385 61.539 22.8372 C 61.1867 22.8382 60.8339 22.8455 60.4805 22.8572 C 60.385 22.8595 60.3595 22.7605 60.3595 22.7605 L 57.5397 13.06 C 57.5397 13.06 57.5308 13 57.4635 13 C 57.4489 13 57.3429 13 57.3215 13 C 57.2458 13 57.2401 13.0694 57.2401 13.0694 L 55.5476 23.2224 C 55.5476 23.2224 55.5319 23.33 55.4453 23.3393 C 54.7089 23.4598 53.9803 23.601 53.2601 23.7651 C 53.173 23.792 53.1213 23.6967 53.1213 23.6967 L 48.4201 13.7528 C 48.4201 13.7528 48.3929 13.7043 48.3387 13.7043 C 48.2839 13.7043 47.9472 13.7043 47.9091 13.7043 C 47.8705 13.7043 47.8663 13.7585 47.8663 13.7585 L 49.1058 29.5908 C 49.1058 29.5908 49.1058 29.7331 49.2181 29.6784 Z" fill="#0070ba"/>
			<g>
				<path d="M 71.4012 36.6945 C 71.4654 36.7304 71.481 36.6824 71.481 36.6666 C 71.4816 36.5631 71.4816 36.5061 71.4816 36.4989 C 71.4816 36.2248 71.4805 36.0011 71.4727 35.7503 C 71.4727 35.7356 71.4727 35.6745 71.4325 35.6438 C 71.3407 35.5748 71.2514 35.5038 71.1564 35.4403 C 70.0938 34.7318 68.8121 34.4027 67.5084 34.4897 C 65.3577 34.6326 64.7773 35.9445 64.6218 36.7352 C 64.6176 36.7582 64.6124 36.7817 64.6087 36.8034 C 64.5545 37.1171 64.7329 37.0667 64.8274 36.9422 C 65.2 36.4487 65.6922 36.0483 66.3111 35.7978 C 66.1128 36.1129 66.0236 36.4853 66.0857 36.8655 C 66.2303 37.7558 67.1467 38.3483 68.1326 38.1872 C 69.1174 38.0264 69.799 37.1732 69.6544 36.2824 C 69.6278 36.1219 69.5756 35.9725 69.5046 35.8346 C 70.1899 36.064 70.8125 36.37 71.2331 36.5997 C 71.2399 36.6033 71.3224 36.6501 71.4012 36.6945 Z" fill="#0070ba"/>
				<path d="M 67.4238 32.7107 C 69.0281 32.6255 70.3538 33.2788 71.076 33.7389 C 71.2008 33.8177 71.2843 33.8717 71.3694 33.9373 C 71.4215 33.977 71.4737 33.9306 71.4696 33.8964 C 71.4247 33.5616 71.3694 33.2571 71.3166 32.9783 C 71.3057 32.921 71.2817 32.873 71.2331 32.8359 C 71.1637 32.7844 71.0928 32.7349 71.0207 32.6868 C 69.9796 31.9884 68.6602 31.612 67.3863 31.6791 C 64.0931 31.8527 62.9418 34.2186 63.0624 36.5222 C 63.1344 37.8992 63.5738 38.6729 63.7236 38.6653 C 63.7654 38.6628 63.7847 38.5289 63.7669 38.2037 C 63.649 35.9603 64.1479 32.8829 67.4238 32.7107 Z" fill="#0070ba"/>
				<path d="M 58.25 36.9422 C 58.3439 37.0667 58.5229 37.1171 58.4681 36.8034 C 58.465 36.7817 58.4592 36.7582 58.4551 36.7352 C 58.2995 35.9445 57.7197 34.6326 55.5679 34.4897 C 54.2653 34.4027 52.9835 34.7318 51.9204 35.4403 C 51.826 35.5038 51.7362 35.5748 51.6449 35.6438 C 51.6042 35.6745 51.6052 35.7356 51.6042 35.7503 C 51.5974 36.0011 51.5963 36.2248 51.5963 36.4989 C 51.5963 36.5061 51.5963 36.5631 51.5963 36.6666 C 51.5963 36.6824 51.612 36.7304 51.6762 36.6945 C 51.7545 36.6501 51.8369 36.6033 51.8437 36.5997 C 52.2644 36.37 52.8875 36.064 53.5722 35.8346 C 53.5007 35.9725 53.4491 36.1219 53.4235 36.2824 C 53.2779 37.1732 53.96 38.0264 54.9438 38.1872 C 55.9301 38.3483 56.8461 37.7558 56.9906 36.8655 C 57.0527 36.4853 56.964 36.1129 56.7662 35.7978 C 57.3857 36.0483 57.8773 36.4487 58.25 36.9422 Z" fill="#0070ba"/>
				<path d="M 59.3543 38.6653 C 59.503 38.6729 59.9425 37.8992 60.0145 36.5222 C 60.1356 34.2186 58.9832 31.8527 55.6911 31.6791 C 54.4172 31.612 53.0978 31.9884 52.0556 32.6868 C 51.9841 32.7349 51.9142 32.7844 51.8447 32.8359 C 51.7957 32.873 51.7712 32.921 51.7602 32.9783 C 51.7075 33.2571 51.6522 33.5616 51.6073 33.8964 C 51.6036 33.9306 51.6558 33.977 51.708 33.9373 C 51.7926 33.8717 51.8766 33.8177 52.0008 33.7389 C 52.7247 33.2788 54.0487 32.6255 55.6535 32.7107 C 58.9295 32.8829 59.4274 35.9603 59.3105 38.2037 C 59.2922 38.5289 59.311 38.6628 59.3543 38.6653 Z" fill="#0070ba"/>
			</g>
			<path d="M 62.2712 73.476 C 48.7348 72.7639 40.0567 68.3459 29.505 68.3459 C 18.7352 68.3459 15.99 72.5011 15.99 75.4345 C 15.99 78.1849 18.6449 80.6296 20.4439 80.6894 L 20.697 80.6894 C 20.697 80.6894 20.8077 80.6191 20.8218 80.5842 C 22.4657 76.6059 26.4326 75.4345 31.1219 75.4345 C 37.74 75.4345 48.3715 78.2664 53.4371 78.2664 C 59.025 78.2664 61.9366 74.6148 62.4622 73.9648 C 62.8233 73.5184 62.3453 73.4798 62.2712 73.476 Z" fill="#0070ba"/>
			<path d="M 78.8815 63.8945 C 75.2387 66.1605 71.2055 67.1404 66.94 67.3544 C 59.1617 67.7447 49.8375 65.3089 41.2858 63.6015 L 36.5146 51.0885 L 41.5144 49.2912 C 42.2675 49.0196 42.9621 48.2619 42.7006 47.1408 C 41.601 43.4144 39.2697 34.1282 41.2701 28.0711 C 41.3354 27.8732 41.5248 27.2081 41.2148 26.9616 C 41.089 26.8618 40.9215 26.8588 40.7665 26.9534 C 40.66 27.0193 40.3338 27.219 39.6768 28.8133 C 38.4529 31.7842 37.3439 37.404 39.0155 47.3077 C 39.0771 47.6457 39.0938 47.9118 38.515 48.1507 C 37.9759 48.3722 36.5464 48.8783 35.7735 49.146 L 28.908 31.1372 C 29.5484 31.5936 30.2059 32.0603 30.3646 32.1608 C 30.9089 32.5049 31.0253 32.5234 31.2122 32.4561 C 31.3995 32.3889 31.5837 32.194 31.2711 31.7667 L 26.429 25.9484 C 26.334 25.8196 26.0992 25.5048 25.8429 25.609 L 25.8429 25.6088 L 25.8413 25.6093 C 25.8413 25.6093 25.8413 25.6097 25.8392 25.61 L 25.8387 25.6101 L 25.8366 25.6109 L 25.8366 25.6113 C 25.5731 25.6935 25.5924 26.0866 25.6007 26.2467 L 25.5632 33.8209 C 25.5934 34.3499 25.8591 34.3828 26.0464 34.3153 C 26.2333 34.2478 26.311 34.1592 26.513 33.5467 C 26.5709 33.3683 26.7823 32.5884 26.9864 31.8283 L 33.1327 50.0967 C 32.3666 50.3824 30.9429 50.9031 30.3865 51.0758 C 29.7879 51.2606 29.6329 51.0445 29.4643 50.7453 C 24.4614 42.0405 20.0353 38.4123 17.2029 36.9015 C 15.6832 36.0905 15.3053 36.1438 15.1811 36.1615 C 15.0011 36.1871 14.8742 36.2959 14.8408 36.4532 C 14.7573 36.8416 15.3267 37.2334 15.5026 37.3444 C 20.8938 40.7419 24.9964 49.3906 26.5167 52.9649 C 27.0266 53.9973 28.0437 54.1393 28.7973 53.8674 L 33.7961 52.0667 L 37.4358 62.8849 C 33.889 62.2834 30.5488 61.9135 27.6006 62.0617 C 22.2622 62.3298 17.9018 64.6191 15.3664 69.4775 C 15.2698 69.6655 15.441 69.8192 15.6237 69.706 C 19.2665 67.4403 23.2997 66.4603 27.5657 66.2459 C 40.3918 65.6022 54.9631 72.1382 66.9051 71.5389 C 72.2435 71.2704 76.6034 68.9815 79.1388 64.1229 C 79.2364 63.9353 79.0642 63.7814 78.8815 63.8945 Z" fill="#0070ba"/>
			<path d="M 70.0657 55.7753 C 71.2138 56.48 72.219 56.8063 73.0838 56.9312 C 75.0847 57.2214 76.9943 56.4746 77.6765 53.7817 C 77.6874 53.74 77.6702 53.7114 77.6295 53.6966 C 77.0643 53.4933 72.9517 51.7362 74.4783 44.0536 C 74.4788 44.0164 74.5242 43.9593 74.5409 43.9448 C 76.1661 42.5096 77.2976 41.5448 77.5569 41.3258 C 77.5956 41.2943 77.5533 41.2703 77.5246 41.264 C 76.6838 41.0855 76.7814 39.819 76.7814 39.819 L 76.8472 35.481 C 76.8472 35.481 77.0825 30.8031 71.7483 30.3638 C 71.6632 30.3566 71.5656 30.3872 71.6569 30.4888 C 72.0515 30.9289 72.9799 32.502 72.9799 36.7537 C 72.9799 38.5485 72.4789 39.4921 72.4789 39.4921 L 71.4273 42.2832 C 71.4273 42.2832 70.7264 44.4559 70.7911 46.2506 C 70.8355 47.4482 70.8208 47.8326 70.8057 47.9555 C 70.7989 48.0167 70.7681 48.0134 70.7222 48.0114 C 70.1356 47.987 65.9923 47.6717 64.747 43.4198 C 64.7408 43.4003 64.7053 43.3627 64.6672 43.3627 C 64.568 43.3627 64.3937 43.3627 64.3128 43.3627 C 64.2904 43.3627 64.2627 43.3796 64.2679 43.4091 C 64.3013 43.6157 64.4391 44.4548 64.4454 44.5078 C 64.4522 44.5683 64.4422 44.6006 64.4109 44.6223 C 64.1855 44.7776 63.161 45.4153 61.5536 45.427 C 61.5478 45.427 61.5431 45.4274 61.5384 45.4274 C 61.5343 45.4274 61.5285 45.427 61.5238 45.427 C 59.9153 45.4153 58.8924 44.7776 58.6654 44.6223 C 58.6341 44.6006 58.6247 44.5683 58.6315 44.5078 C 58.6383 44.4548 58.776 43.6157 58.81 43.4091 C 58.8141 43.3796 58.787 43.3627 58.7635 43.3627 C 58.6837 43.3627 58.5094 43.3627 58.4102 43.3627 C 58.3716 43.3627 58.3356 43.4003 58.3303 43.4198 C 57.0846 47.6717 52.9407 47.987 52.3546 48.0114 C 52.3092 48.0134 52.2779 48.0167 52.2711 47.9555 C 52.2565 47.8326 52.2414 47.4482 52.2857 46.2506 C 52.3499 44.4559 51.6506 42.2832 51.6506 42.2832 L 50.5974 39.4921 C 50.5974 39.4921 50.0975 38.5485 50.0975 36.7537 C 50.0975 32.502 51.0259 30.9289 51.4205 30.4888 C 51.5113 30.3872 51.4137 30.3566 51.3286 30.3638 C 45.9938 30.8031 46.2302 35.481 46.2302 35.481 L 46.2949 39.819 C 46.2949 39.819 46.3936 41.0855 45.5528 41.264 C 45.5236 41.2703 45.4818 41.2943 45.5199 41.3258 C 45.7798 41.5448 46.9108 42.5096 48.5365 43.9448 C 48.5521 43.9593 48.597 44.0164 48.5996 44.0536 C 50.1256 51.7362 46.0131 53.4933 45.4474 53.6966 C 45.4067 53.7114 45.39 53.74 45.3999 53.7817 C 46.083 56.4746 47.9921 57.2214 49.9936 56.9312 C 50.8584 56.8063 51.8635 56.48 53.0117 55.7753 C 53.0488 55.7494 53.1291 55.7494 53.0686 55.8795 C 52.9569 56.1956 52.1615 58.0558 48.9738 58.0558 C 47.6049 58.0046 47.2114 57.8172 47.0527 57.7295 C 47.0329 57.7186 46.988 57.7474 47.0073 57.7923 C 47.3794 58.6521 48.5552 61.2879 51.1558 61.2879 C 55.5528 61.2879 57.4426 57.4122 57.6853 56.8856 C 57.7108 56.8199 57.7964 56.8041 57.8173 56.9103 C 57.8011 60.7993 53.9652 62.3392 51.6449 62.3392 C 51.5901 62.3392 51.5922 62.3976 51.6433 62.4355 C 52.7695 63.2837 55.2908 64.7415 57.7093 64.562 C 59.8167 64.4055 61.1908 62.775 61.4732 61.8262 C 61.4951 61.752 61.5817 61.7558 61.6047 61.832 C 61.8918 62.7818 63.2649 64.4057 65.3671 64.562 C 67.786 64.7415 70.3078 63.2837 71.4336 62.4355 C 71.4847 62.3976 71.4863 62.3392 71.4315 62.3392 C 69.1111 62.3392 65.2747 60.7993 65.2595 56.9103 C 65.2809 56.8041 65.366 56.8199 65.3926 56.8856 C 65.6337 57.4122 67.524 61.2879 71.921 61.2879 C 74.5211 61.2879 75.698 58.6521 76.0701 57.7923 C 76.0894 57.7474 76.0429 57.7186 76.0241 57.7295 C 75.8665 57.8172 75.4715 58.0046 74.102 58.0558 C 70.9153 58.0558 70.1205 56.1956 70.0083 55.8795 C 69.9482 55.7494 70.0276 55.7494 70.0657 55.7753 ZM 65.5701 50.9569 C 65.5168 50.948 65.4699 50.9638 65.4443 51.0121 C 65.1139 51.5863 64.6761 52.2753 63.7732 52.2753 L 61.5494 52.2753 L 61.5275 52.2753 L 59.3032 52.2753 C 58.4013 52.2753 57.9624 51.5863 57.6326 51.0121 C 57.6086 50.9638 57.5605 50.948 57.5068 50.9569 C 56.1217 51.2223 54.39 51.3216 52.2764 51.1337 C 51.7357 51.0858 51.4017 50.5324 52.0927 50.586 C 55.4041 50.8419 59.2405 50.0414 61.0651 47.3377 C 61.1538 47.2076 61.3448 46.998 61.5384 46.9891 C 61.7326 46.998 61.9241 47.2076 62.0118 47.3377 C 63.8363 50.0414 67.6733 50.8419 70.9847 50.586 C 71.6757 50.5324 71.3417 51.0858 70.8 51.1337 C 68.6873 51.3216 66.9557 51.2223 65.5701 50.9569 Z" fill="#0070ba"/>
			<path d="M 63.5754 50.3519 C 63.2064 50.0754 62.9303 49.7985 62.5927 49.7985 L 60.4842 49.7985 C 60.1465 49.7985 59.8699 50.0754 59.5025 50.3519 C 59.1946 50.5672 59.133 50.6593 59.133 50.721 C 59.133 50.875 59.3183 50.875 59.3183 50.875 L 63.7596 50.875 C 63.7596 50.875 63.9438 50.875 63.9438 50.721 C 63.9438 50.6593 63.8823 50.5672 63.5754 50.3519 Z" fill="#0070ba"/>
		</g>
		<g>
			<path d="M 15.8597 89.2891 L 16.1233 93.0965 L 15.8597 93.0965 C 15.6836 92.5294 15.4692 92.042 15.2172 91.6345 C 14.964 91.2272 14.6762 90.894 14.3535 90.6353 C 14.0303 90.3765 13.6728 90.1866 13.2818 90.0653 C 12.8904 89.9443 12.4648 89.8837 12.0054 89.8837 C 11.2343 89.8837 10.5507 90.0668 9.9554 90.433 C 9.3597 90.7992 8.8864 91.362 8.5352 92.1218 C 8.3419 92.5403 8.1941 93.0151 8.0924 93.5465 C 7.9904 94.0777 7.9392 94.6737 7.9392 95.3345 C 7.9392 96.342 8.1068 97.2202 8.4411 97.9691 C 8.6112 98.3489 8.8255 98.6821 9.0835 98.9684 C 9.3415 99.2547 9.6349 99.4942 9.9638 99.6867 C 10.2927 99.8797 10.6515 100.0255 11.04 100.1246 C 11.4285 100.2235 11.8328 100.2731 12.2524 100.2731 C 12.7281 100.2731 13.1396 100.2265 13.4858 100.1327 C 13.8319 100.0391 14.1464 99.8962 14.4298 99.7033 C 14.7138 99.5106 14.9875 99.2686 15.2514 98.9765 C 15.5144 98.6847 15.8057 98.3436 16.1233 97.9525 L 16.3869 98.1176 C 16.0976 98.6131 15.7853 99.0426 15.451 99.4061 C 15.1165 99.7695 14.7537 100.0695 14.362 100.3062 C 13.9707 100.5431 13.5466 100.7179 13.09 100.8306 C 12.6334 100.9435 12.1416 101 11.6143 101 C 9.6967 101 8.217 100.3117 7.1738 98.9353 C 6.391 97.9111 6 96.7055 6 95.3181 C 6 94.6519 6.0929 94.0063 6.2806 93.3812 C 6.4673 92.7564 6.7573 92.1796 7.1477 91.6511 C 7.4201 91.2768 7.7308 90.9422 8.0798 90.6476 C 8.4285 90.353 8.8054 90.1054 9.2112 89.9044 C 9.6164 89.7034 10.0435 89.5508 10.4917 89.446 C 10.9392 89.3416 11.3981 89.2891 11.8692 89.2891 C 12.7034 89.2891 13.5253 89.4874 14.3369 89.8837 C 14.5861 90.0104 14.7562 90.0709 14.8472 90.0653 C 15.028 90.0653 15.1802 89.9925 15.3017 89.8465 C 15.4234 89.7007 15.5107 89.5149 15.5615 89.2891 L 15.8597 89.2891 Z" fill="#0070ba"/>
			<path d="M 21.9507 99.6537 C 21.1507 100.2594 20.6489 100.6064 20.4449 100.6943 C 20.1439 100.8319 19.8182 100.9007 19.466 100.9007 C 19.1999 100.9007 18.9529 100.8541 18.7263 100.7605 C 18.4997 100.6668 18.3039 100.5347 18.1394 100.3641 C 17.975 100.1934 17.8453 99.9883 17.7524 99.7487 C 17.6583 99.5093 17.6115 99.2437 17.6115 98.9518 C 17.6115 98.7372 17.6417 98.5388 17.7007 98.3571 C 17.7609 98.1754 17.8501 98.0034 17.969 97.8408 C 18.0886 97.6787 18.2395 97.5232 18.4244 97.3743 C 18.6086 97.2258 18.8255 97.0799 19.075 96.9366 C 19.6587 96.6008 20.6175 96.199 21.9507 95.7309 L 21.9507 95.4336 C 21.9507 95.0537 21.9178 94.7371 21.8519 94.4838 C 21.7872 94.2306 21.6937 94.0282 21.5719 93.8767 C 21.4498 93.7253 21.2979 93.6181 21.1162 93.5547 C 20.9354 93.4915 20.7314 93.4598 20.5042 93.4598 C 20.3228 93.4598 20.1596 93.4859 20.0149 93.5381 C 19.8703 93.5906 19.7466 93.6595 19.6452 93.7447 C 19.5429 93.83 19.4651 93.9293 19.4108 94.0421 C 19.3574 94.1548 19.3301 94.2691 19.3301 94.3847 L 19.3471 94.8637 C 19.3471 95.1171 19.2805 95.3125 19.1472 95.45 C 19.0138 95.5877 18.8393 95.6564 18.624 95.6564 C 18.4143 95.6564 18.2427 95.585 18.1093 95.4419 C 17.9759 95.2988 17.9097 95.1031 17.9097 94.8554 C 17.9097 94.6242 17.9734 94.3958 18.1011 94.17 C 18.2285 93.9443 18.4128 93.7405 18.6535 93.5591 C 18.8948 93.377 19.193 93.2314 19.5476 93.1211 C 19.9013 93.0109 20.3056 92.9559 20.7591 92.9559 C 21.3601 92.9559 21.8707 93.0414 22.2906 93.2119 C 22.7099 93.3827 23.0137 93.6774 23.2008 94.0956 C 23.3024 94.3379 23.3542 94.8225 23.3542 95.5491 L 23.3542 98.1176 C 23.3542 98.4811 23.3577 98.7729 23.3665 98.9931 C 23.3749 99.2135 23.3853 99.3648 23.3966 99.4473 C 23.4251 99.6071 23.4722 99.7145 23.5369 99.7695 C 23.6022 99.8247 23.6775 99.8521 23.7619 99.8521 C 23.8193 99.8521 23.8733 99.8437 23.9238 99.8272 C 23.975 99.8107 24.0343 99.7776 24.1024 99.7282 C 24.1708 99.6786 24.2502 99.6112 24.3409 99.5259 C 24.4313 99.4403 24.5478 99.329 24.6896 99.1912 L 24.6896 99.6537 C 24.0481 100.4797 23.4418 100.8927 22.869 100.8927 C 22.5969 100.8927 22.3757 100.799 22.2056 100.6117 C 22.0351 100.4248 21.9507 100.1052 21.9507 99.6537 ZM 21.9507 99.117 L 21.9507 96.2347 C 21.5189 96.3998 21.1661 96.5403 20.8912 96.6559 C 20.6159 96.7715 20.416 96.8651 20.2911 96.9366 C 19.8436 97.1844 19.5225 97.4391 19.3301 97.7006 C 19.1371 97.9621 19.0405 98.2498 19.0405 98.5636 C 19.0405 98.7618 19.0734 98.9449 19.1387 99.113 C 19.204 99.2809 19.2918 99.4268 19.4023 99.5506 C 19.5131 99.6743 19.6421 99.771 19.7893 99.8396 C 19.9365 99.9085 20.0903 99.9428 20.2488 99.9428 C 20.6797 99.9428 21.2471 99.6675 21.9507 99.117 Z" fill="#0070ba"/>
			<path d="M 27.8387 94.5664 C 28.4055 94.0159 28.7401 93.6992 28.8421 93.6167 C 29.0975 93.4075 29.3725 93.245 29.6675 93.1295 C 29.9625 93.0138 30.2544 92.9559 30.5437 92.9559 C 31.0368 92.9559 31.4579 93.0921 31.8069 93.3648 C 32.1556 93.6372 32.3897 94.0379 32.5087 94.5664 C 33.0927 93.9112 33.5858 93.479 33.9888 93.2698 C 34.3914 93.0606 34.8057 92.9559 35.2313 92.9559 C 35.5147 92.9559 35.7811 93.0028 36.0303 93.0965 C 36.2801 93.19 36.4976 93.3456 36.6812 93.563 C 36.8658 93.7805 37.0117 94.071 37.1193 94.4343 C 37.2276 94.7977 37.2813 95.2464 37.2813 95.7804 L 37.2813 99.0344 C 37.2813 99.2821 37.2882 99.4956 37.3023 99.6743 C 37.3167 99.8534 37.3607 100.0006 37.4344 100.1162 C 37.5079 100.2318 37.6243 100.316 37.7831 100.3681 C 37.9419 100.4205 38.166 100.4467 38.4554 100.4467 L 38.4554 100.7439 L 34.6099 100.7439 L 34.6099 100.4467 L 34.7712 100.4467 C 35.0549 100.4467 35.2846 100.4026 35.461 100.3145 C 35.6364 100.2265 35.7613 100.0666 35.8351 99.8355 C 35.8577 99.7529 35.8693 99.4858 35.8693 99.0344 L 35.8693 95.7804 C 35.8693 95.417 35.8404 95.1184 35.7836 94.8844 C 35.7268 94.6504 35.6437 94.4632 35.5332 94.3228 C 35.4224 94.1822 35.2874 94.0847 35.1289 94.0296 C 34.9701 93.9745 34.7856 93.9469 34.576 93.9469 C 34.4228 93.9469 34.274 93.9635 34.129 93.9964 C 33.9847 94.0296 33.8328 94.0875 33.6743 94.17 C 33.5155 94.2525 33.3441 94.3613 33.1593 94.4961 C 32.9757 94.6312 32.7723 94.8004 32.5514 95.004 L 32.5683 99.0344 C 32.5683 99.3041 32.5733 99.5149 32.5849 99.6663 C 32.5969 99.8177 32.6179 99.9334 32.649 100.0129 C 32.6804 100.0929 32.7243 100.1522 32.7808 100.1907 C 32.8376 100.2292 32.9082 100.2731 32.9936 100.3227 C 33.0733 100.3668 33.1834 100.3984 33.3253 100.4177 C 33.4675 100.4369 33.6373 100.4467 33.8356 100.4467 L 33.8356 100.7439 L 29.8975 100.7439 L 29.8975 100.4467 C 30.2035 100.4467 30.443 100.4259 30.6153 100.3847 C 30.7891 100.3436 30.915 100.269 30.9944 100.1617 C 31.0744 100.0543 31.1224 99.9098 31.1391 99.7282 C 31.1563 99.5464 31.1648 99.3152 31.1648 99.0344 L 31.1648 95.7804 C 31.1648 95.4281 31.1315 95.1334 31.0672 94.8969 C 31.0016 94.6601 30.91 94.4702 30.7901 94.327 C 30.6718 94.1838 30.5308 94.0806 30.3689 94.0171 C 30.2076 93.9539 30.0303 93.9223 29.8373 93.9223 C 29.6505 93.9223 29.4572 93.9568 29.2588 94.0255 C 29.0605 94.0942 28.8719 94.1798 28.6933 94.2816 C 28.5147 94.3834 28.3512 94.4961 28.204 94.6201 C 28.0565 94.744 27.9351 94.8637 27.8387 94.9794 L 27.8387 99.0344 C 27.8387 99.2932 27.8469 99.4984 27.8641 99.6496 C 27.8814 99.8011 27.9065 99.9221 27.9401 100.0129 C 27.9746 100.1038 28.0185 100.1713 28.0722 100.2154 C 28.1262 100.2594 28.1874 100.3008 28.2552 100.3392 C 28.3973 100.4108 28.6807 100.4467 29.1063 100.4467 L 29.1063 100.7439 L 25.2523 100.7439 L 25.2523 100.4467 C 25.5131 100.4467 25.7215 100.4273 25.8772 100.3888 C 26.0338 100.3503 26.1524 100.2801 26.235 100.1781 C 26.3175 100.0764 26.3712 99.9334 26.3963 99.7487 C 26.422 99.5644 26.4349 99.3262 26.4349 99.0344 L 26.4349 96.1439 C 26.4349 95.6539 26.4264 95.2697 26.4095 94.9918 C 26.3922 94.7138 26.3608 94.5045 26.3153 94.364 C 26.2701 94.2238 26.2083 94.137 26.1289 94.1038 C 26.0489 94.071 25.9472 94.0544 25.8223 94.0544 C 25.6632 94.0544 25.473 94.0956 25.2523 94.1781 L 25.1249 93.8809 L 27.4725 92.9559 L 27.8387 92.9559 L 27.8387 94.5664 Z" fill="#0070ba"/>
			<path d="M 43.662 99.6537 C 42.8627 100.2594 42.3608 100.6064 42.1568 100.6943 C 41.8555 100.8319 41.5298 100.9007 41.1786 100.9007 C 40.9118 100.9007 40.6648 100.8541 40.4382 100.7605 C 40.2113 100.6668 40.0158 100.5347 39.8507 100.3641 C 39.6872 100.1934 39.5579 99.9883 39.4637 99.7487 C 39.3708 99.5093 39.3238 99.2437 39.3238 98.9518 C 39.3238 98.7372 39.3536 98.5388 39.4129 98.3571 C 39.4728 98.1754 39.562 98.0034 39.6812 97.8408 C 39.8002 97.6787 39.9521 97.5232 40.1363 97.3743 C 40.3205 97.2258 40.5374 97.0799 40.7869 96.9366 C 41.3713 96.6008 42.3294 96.199 43.662 95.7309 L 43.662 95.4336 C 43.662 95.0537 43.6297 94.7371 43.5644 94.4838 C 43.4991 94.2306 43.4056 94.0282 43.2838 93.8767 C 43.1624 93.7253 43.0098 93.6181 42.8284 93.5547 C 42.6474 93.4915 42.443 93.4598 42.2161 93.4598 C 42.035 93.4598 41.8722 93.4859 41.7269 93.5381 C 41.5822 93.5906 41.4595 93.6595 41.3571 93.7447 C 41.2548 93.83 41.177 93.9293 41.1233 94.0421 C 41.069 94.1548 41.0417 94.2691 41.0417 94.3847 L 41.059 94.8637 C 41.059 95.1171 40.9921 95.3125 40.8597 95.45 C 40.726 95.5877 40.5515 95.6564 40.3362 95.6564 C 40.1263 95.6564 39.9543 95.585 39.8215 95.4419 C 39.6881 95.2988 39.6216 95.1031 39.6216 94.8554 C 39.6216 94.6242 39.6856 94.3958 39.813 94.17 C 39.9405 93.9443 40.125 93.7405 40.3663 93.5591 C 40.6068 93.377 40.9046 93.2314 41.2589 93.1211 C 41.6136 93.0109 42.0178 92.9559 42.471 92.9559 C 43.0729 92.9559 43.5832 93.0414 44.0025 93.2119 C 44.4221 93.3827 44.7256 93.6774 44.9127 94.0956 C 45.015 94.3379 45.0655 94.8225 45.0655 95.5491 L 45.0655 98.1176 C 45.0655 98.4811 45.0702 98.7729 45.0787 98.9931 C 45.0875 99.2135 45.0975 99.3648 45.1085 99.4473 C 45.1367 99.6071 45.1835 99.7145 45.2488 99.7695 C 45.3141 99.8247 45.3894 99.8521 45.4744 99.8521 C 45.5309 99.8521 45.5849 99.8437 45.6358 99.8272 C 45.6869 99.8107 45.7465 99.7776 45.815 99.7282 C 45.8828 99.6786 45.9622 99.6112 46.0532 99.5259 C 46.1432 99.4403 46.2597 99.329 46.4012 99.1912 L 46.4012 99.6537 C 45.7607 100.4797 45.154 100.8927 44.5809 100.8927 C 44.3085 100.8927 44.0873 100.799 43.9178 100.6117 C 43.7477 100.4248 43.662 100.1052 43.662 99.6537 ZM 43.662 99.117 L 43.662 96.2347 C 43.2311 96.3998 42.8787 96.5403 42.6031 96.6559 C 42.3279 96.7715 42.1283 96.8651 42.0037 96.9366 C 41.5555 97.1844 41.2351 97.4391 41.0417 97.7006 C 40.8497 97.9621 40.7536 98.2498 40.7536 98.5636 C 40.7536 98.7618 40.7856 98.9449 40.8506 99.113 C 40.9165 99.2809 41.0038 99.4268 41.1149 99.5506 C 41.225 99.6743 41.354 99.771 41.5018 99.8396 C 41.6497 99.9085 41.8025 99.9428 41.9613 99.9428 C 42.3916 99.9428 42.959 99.6675 43.662 99.117 Z" fill="#0070ba"/>
			<path d="M 49.6043 94.5581 C 50.5176 93.49 51.3879 92.9559 52.2161 92.9559 C 52.5058 92.9559 52.7722 93.0028 53.0154 93.0965 C 53.2593 93.19 53.4718 93.347 53.6535 93.567 C 53.8346 93.7874 53.9767 94.0792 54.0791 94.4424 C 54.1807 94.8059 54.2322 95.2602 54.2322 95.8053 L 54.2322 99.0344 C 54.2322 99.3594 54.2504 99.6154 54.2871 99.8023 C 54.3245 99.9896 54.3882 100.1313 54.4786 100.2278 C 54.5696 100.3242 54.6914 100.3847 54.8445 100.4095 C 54.9974 100.4343 55.1904 100.4467 55.4226 100.4467 L 55.4226 100.7439 L 51.5696 100.7439 L 51.5696 100.4467 L 51.7309 100.4467 C 51.9864 100.4467 52.1863 100.4248 52.331 100.3807 C 52.4756 100.3366 52.5845 100.2608 52.6583 100.1534 C 52.7324 100.046 52.7788 99.9016 52.7986 99.7199 C 52.8187 99.5381 52.829 99.3098 52.829 99.0344 L 52.829 95.9374 C 52.829 95.2492 52.7361 94.7496 52.5516 94.4383 C 52.368 94.1274 52.0573 93.9718 51.6207 93.9718 C 50.945 93.9718 50.2734 94.3297 49.6043 95.0454 L 49.6043 99.0344 C 49.6043 99.5354 49.6357 99.8521 49.6981 99.9842 C 49.7377 100.0666 49.7816 100.1384 49.8296 100.1989 C 49.8777 100.2594 49.9429 100.3077 50.0248 100.3436 C 50.1074 100.3793 50.2157 100.4054 50.3487 100.4218 C 50.4821 100.4383 50.6563 100.4467 50.8719 100.4467 L 50.8719 100.7439 L 47.0186 100.7439 L 47.0186 100.4467 L 47.188 100.4467 C 47.392 100.4467 47.5593 100.4248 47.6899 100.3807 C 47.8204 100.3366 47.9246 100.2594 48.0006 100.1493 C 48.0774 100.0391 48.1296 99.8948 48.1578 99.7158 C 48.1867 99.5369 48.2008 99.3098 48.2008 99.0344 L 48.2008 96.2265 C 48.2008 95.3289 48.1782 94.7756 48.1327 94.5664 C 48.0925 94.3682 48.0288 94.2333 47.9412 94.1618 C 47.8534 94.0902 47.736 94.0544 47.5882 94.0544 C 47.4294 94.0544 47.2392 94.0956 47.0186 94.1781 L 46.8905 93.8809 L 49.2387 92.9559 L 49.6043 92.9559 L 49.6043 94.5581 Z" fill="#0070ba"/>
			<path d="M 62.663 97.87 C 62.555 98.3709 62.3924 98.8142 62.1774 99.1995 C 61.9625 99.585 61.7101 99.9098 61.4208 100.1741 C 61.1314 100.4383 60.8135 100.638 60.4679 100.773 C 60.1215 100.9078 59.7643 100.9752 59.3962 100.9752 C 58.9593 100.9752 58.5419 100.8815 58.1458 100.6943 C 57.7479 100.5072 57.3979 100.2401 57.0945 99.8932 C 56.7913 99.5464 56.549 99.1266 56.3673 98.634 C 56.1862 98.1412 56.0952 97.5865 56.0952 96.9698 C 56.0952 96.375 56.195 95.8313 56.3933 95.3385 C 56.591 94.8458 56.8591 94.4234 57.1971 94.071 C 57.5345 93.7185 57.9286 93.4447 58.379 93.2491 C 58.8303 93.0537 59.308 92.9559 59.813 92.9559 C 60.1927 92.9559 60.5423 93.0109 60.8634 93.1211 C 61.1835 93.2314 61.46 93.3744 61.6929 93.5506 C 61.9251 93.7269 62.1081 93.9223 62.2415 94.137 C 62.3749 94.3518 62.4417 94.5637 62.4417 94.7729 C 62.4417 94.9822 62.3733 95.1516 62.2374 95.2808 C 62.1012 95.4103 61.9053 95.4748 61.6505 95.4748 C 61.5199 95.4748 61.3988 95.4613 61.2886 95.4336 C 61.1779 95.4061 61.0818 95.3565 60.9999 95.2849 C 60.9171 95.2135 60.8505 95.1143 60.7994 94.9876 C 60.7482 94.861 60.7143 94.6985 60.6977 94.5004 C 60.6688 94.1754 60.5571 93.9293 60.3612 93.7612 C 60.1654 93.5933 59.8892 93.5093 59.5321 93.5093 C 59.1975 93.5093 58.9025 93.5823 58.6473 93.7282 C 58.3922 93.8741 58.1766 94.0722 58.0005 94.3228 C 57.8248 94.5733 57.6936 94.8652 57.6051 95.1983 C 57.5175 95.5314 57.4733 95.885 57.4733 96.2595 C 57.4733 96.7001 57.531 97.1253 57.6478 97.5354 C 57.7639 97.9455 57.9312 98.3104 58.1493 98.6296 C 58.3683 98.949 58.6329 99.2052 58.9452 99.3977 C 59.2568 99.5905 59.6115 99.6867 60.0082 99.6867 C 60.2464 99.6867 60.4736 99.6579 60.6892 99.6001 C 60.9042 99.5424 61.1116 99.442 61.31 99.2987 C 61.5083 99.1556 61.7001 98.9588 61.884 98.7081 C 62.0682 98.4577 62.2452 98.1395 62.416 97.7542 L 62.663 97.87 Z" fill="#0070ba"/>
			<path d="M 65.9574 89 L 65.9574 94.5335 C 66.1388 94.3628 66.3192 94.1838 66.4978 93.9964 C 66.6757 93.8094 66.8678 93.6387 67.0715 93.4845 C 67.2758 93.3304 67.4986 93.2037 67.7394 93.1046 C 67.9807 93.0055 68.2541 92.9559 68.56 92.9559 C 68.9743 92.9559 69.312 93.0427 69.5728 93.2161 C 69.8336 93.3896 70.0373 93.6206 70.1851 93.9098 C 70.3329 94.1988 70.4331 94.528 70.487 94.8969 C 70.5407 95.2656 70.568 95.6455 70.568 96.0365 L 70.568 99.0344 C 70.568 99.2877 70.5727 99.5009 70.5812 99.6743 C 70.5894 99.848 70.6289 99.9883 70.7001 100.0956 C 70.7704 100.2029 70.8844 100.2841 71.0403 100.3392 C 71.1963 100.3943 71.4242 100.4301 71.7251 100.4467 L 71.7251 100.7439 L 67.8972 100.7439 L 67.8972 100.4467 L 68.0755 100.4467 C 68.3306 100.4467 68.529 100.4248 68.6715 100.3807 C 68.8124 100.3366 68.9203 100.2608 68.9941 100.1534 C 69.0675 100.046 69.1137 99.9016 69.1309 99.7199 C 69.1472 99.5381 69.156 99.3098 69.156 99.0344 L 69.156 96.0365 C 69.156 95.7997 69.1516 95.5587 69.1429 95.3138 C 69.1344 95.0689 69.0933 94.8458 69.0198 94.6449 C 68.9461 94.4439 68.8227 94.2787 68.6495 94.1492 C 68.4766 94.02 68.2283 93.9552 67.9054 93.9552 C 67.7638 93.9552 67.6214 93.9705 67.4798 94.0007 C 67.3383 94.0309 67.1895 94.086 67.0335 94.1658 C 66.8779 94.2458 66.7118 94.3557 66.5358 94.4961 C 66.3597 94.6367 66.1676 94.817 65.9574 95.0371 L 65.9574 99.0344 C 65.9574 99.3041 65.963 99.5149 65.9743 99.6663 C 65.9859 99.8177 66.0063 99.9347 66.0383 100.0172 C 66.0694 100.0998 66.1118 100.1605 66.1654 100.1989 C 66.2197 100.2374 66.2891 100.2786 66.3745 100.3227 C 66.4539 100.3668 66.5643 100.3984 66.7062 100.4177 C 66.848 100.4369 67.0175 100.4467 67.2168 100.4467 L 67.2168 100.7439 L 63.354 100.7439 L 63.354 100.4467 C 63.57 100.4467 63.7526 100.4343 63.9029 100.4095 C 64.0533 100.3847 64.1766 100.3256 64.2726 100.2318 C 64.369 100.1384 64.4393 99.9964 64.481 99.8065 C 64.524 99.6166 64.5451 99.3594 64.5451 99.0344 L 64.5451 92.1878 C 64.5451 91.3346 64.5225 90.8033 64.4766 90.5939 C 64.4371 90.3958 64.3734 90.2609 64.2858 90.1894 C 64.1976 90.1178 64.0803 90.0819 63.9328 90.0819 C 63.8022 90.0819 63.6095 90.126 63.354 90.2141 L 63.2351 89.925 L 65.5657 89 L 65.9574 89 Z" fill="#0070ba"/>
			<path d="M 76.7953 99.6537 C 75.9959 100.2594 75.4941 100.6064 75.2901 100.6943 C 74.9885 100.8319 74.6627 100.9007 74.3112 100.9007 C 74.0451 100.9007 73.7981 100.8541 73.5709 100.7605 C 73.3443 100.6668 73.149 100.5347 72.9846 100.3641 C 72.8201 100.1934 72.6905 99.9883 72.597 99.7487 C 72.5032 99.5093 72.4567 99.2437 72.4567 98.9518 C 72.4567 98.7372 72.4862 98.5388 72.5462 98.3571 C 72.6061 98.1754 72.6952 98.0034 72.8142 97.8408 C 72.9331 97.6787 73.0847 97.5232 73.2689 97.3743 C 73.4532 97.2258 73.67 97.0799 73.9198 96.9366 C 74.5039 96.6008 75.4627 96.199 76.7953 95.7309 L 76.7953 95.4336 C 76.7953 95.0537 76.7626 94.7371 76.697 94.4838 C 76.6318 94.2306 76.5389 94.0282 76.4168 93.8767 C 76.2947 93.7253 76.1431 93.6181 75.9614 93.5547 C 75.7803 93.4915 75.576 93.4598 75.3491 93.4598 C 75.1677 93.4598 75.0045 93.4859 74.8601 93.5381 C 74.7154 93.5906 74.5918 93.6595 74.4901 93.7447 C 74.3875 93.83 74.3103 93.9293 74.256 94.0421 C 74.2023 94.1548 74.175 94.2691 74.175 94.3847 L 74.1923 94.8637 C 74.1923 95.1171 74.1254 95.3125 73.9923 95.45 C 73.859 95.5877 73.6842 95.6564 73.4692 95.6564 C 73.2592 95.6564 73.0872 95.585 72.9541 95.4419 C 72.8205 95.2988 72.7549 95.1031 72.7549 94.8554 C 72.7549 94.6242 72.8186 94.3958 72.9454 94.17 C 73.0734 93.9443 73.2579 93.7405 73.4984 93.5591 C 73.74 93.377 74.0375 93.2314 74.3922 93.1211 C 74.7462 93.0109 75.1504 92.9559 75.6036 92.9559 C 76.2052 92.9559 76.7159 93.0414 77.1352 93.2119 C 77.5545 93.3827 77.8583 93.6774 78.0459 94.0956 C 78.1476 94.3379 78.1988 94.8225 78.1988 95.5491 L 78.1988 98.1176 C 78.1988 98.4811 78.2029 98.7729 78.2113 98.9931 C 78.2201 99.2135 78.2298 99.3648 78.2418 99.4473 C 78.2697 99.6071 78.3168 99.7145 78.3817 99.7695 C 78.4473 99.8247 78.5227 99.8521 78.6071 99.8521 C 78.6639 99.8521 78.7179 99.8437 78.769 99.8272 C 78.8202 99.8107 78.8792 99.7776 78.9476 99.7282 C 79.0157 99.6786 79.0948 99.6112 79.1858 99.5259 C 79.2762 99.4403 79.3926 99.329 79.5342 99.1912 L 79.5342 99.6537 C 78.8933 100.4797 78.2866 100.8927 77.7142 100.8927 C 77.4418 100.8927 77.2205 100.799 77.0507 100.6117 C 76.8803 100.4248 76.7953 100.1052 76.7953 99.6537 ZM 76.7953 99.117 L 76.7953 96.2347 C 76.3641 96.3998 76.0116 96.5403 75.7357 96.6559 C 75.4611 96.7715 75.2612 96.8651 75.1363 96.9366 C 74.6884 97.1844 74.3677 97.4391 74.175 97.7006 C 73.9823 97.9621 73.8863 98.2498 73.8863 98.5636 C 73.8863 98.7618 73.9186 98.9449 73.9832 99.113 C 74.0488 99.2809 74.137 99.4268 74.2472 99.5506 C 74.358 99.6743 74.4873 99.771 74.6345 99.8396 C 74.7817 99.9085 74.9354 99.9428 75.0936 99.9428 C 75.5248 99.9428 76.0919 99.6675 76.7953 99.117 Z" fill="#0070ba"/>
			<path d="M 86.7309 97.87 C 86.6236 98.3709 86.4616 98.8142 86.2466 99.1995 C 86.0307 99.585 85.7787 99.9098 85.4893 100.1741 C 85.2 100.4383 84.8824 100.638 84.5365 100.773 C 84.19 100.9078 83.8335 100.9752 83.4644 100.9752 C 83.0279 100.9752 82.6104 100.8815 82.2138 100.6943 C 81.8171 100.5072 81.4665 100.2401 81.163 99.8932 C 80.8595 99.5464 80.6176 99.1266 80.4362 98.634 C 80.2551 98.1412 80.1637 97.5865 80.1637 96.9698 C 80.1637 96.375 80.2629 95.8313 80.4619 95.3385 C 80.6596 94.8458 80.9279 94.4234 81.2656 94.071 C 81.6027 93.7185 81.9969 93.4447 82.4476 93.2491 C 82.8989 93.0537 83.3765 92.9559 83.8815 92.9559 C 84.2616 92.9559 84.6115 93.0109 84.9316 93.1211 C 85.2521 93.2314 85.5289 93.3744 85.7617 93.5506 C 85.9937 93.7269 86.177 93.9223 86.31 94.137 C 86.4434 94.3518 86.5102 94.5637 86.5102 94.7729 C 86.5102 94.9822 86.4422 95.1516 86.3059 95.2808 C 86.1694 95.4103 85.9742 95.4748 85.7191 95.4748 C 85.5888 95.4748 85.4677 95.4613 85.3578 95.4336 C 85.2464 95.4061 85.1504 95.3565 85.0685 95.2849 C 84.9859 95.2135 84.9191 95.1143 84.8679 94.9876 C 84.8171 94.861 84.7832 94.6985 84.7665 94.5004 C 84.738 94.1754 84.6263 93.9293 84.4298 93.7612 C 84.2346 93.5933 83.9581 93.5093 83.6006 93.5093 C 83.2661 93.5093 82.9714 93.5823 82.7156 93.7282 C 82.4608 93.8741 82.2455 94.0722 82.0694 94.3228 C 81.8936 94.5733 81.7621 94.8652 81.6736 95.1983 C 81.5861 95.5314 81.5418 95.885 81.5418 96.2595 C 81.5418 96.7001 81.6002 97.1253 81.716 97.5354 C 81.8324 97.9455 82 98.3104 82.2178 98.6296 C 82.4369 98.949 82.7015 99.2052 83.0137 99.3977 C 83.3254 99.5905 83.68 99.6867 84.0773 99.6867 C 84.3149 99.6867 84.5421 99.6579 84.7578 99.6001 C 84.9734 99.5424 85.1802 99.442 85.3785 99.2987 C 85.5769 99.1556 85.7686 98.9588 85.9522 98.7081 C 86.1371 98.4577 86.3141 98.1395 86.4845 97.7542 L 86.7309 97.87 Z" fill="#0070ba"/>
			<path d="M 92.2608 99.6537 C 91.4611 100.2594 90.9593 100.6064 90.755 100.6943 C 90.454 100.8319 90.1282 100.9007 89.7767 100.9007 C 89.51 100.9007 89.2636 100.8541 89.037 100.7605 C 88.8095 100.6668 88.6143 100.5347 88.4498 100.3641 C 88.285 100.1934 88.156 99.9883 88.0625 99.7487 C 87.9693 99.5093 87.9219 99.2437 87.9219 98.9518 C 87.9219 98.7372 87.9524 98.5388 88.0114 98.3571 C 88.0707 98.1754 88.1601 98.0034 88.2797 97.8408 C 88.3986 97.6787 88.5502 97.5232 88.7351 97.3743 C 88.9193 97.2258 89.1362 97.0799 89.385 96.9366 C 89.9694 96.6008 90.9279 96.199 92.2608 95.7309 L 92.2608 95.4336 C 92.2608 95.0537 92.2281 94.7371 92.1632 94.4838 C 92.0979 94.2306 92.0037 94.0282 91.8826 93.8767 C 91.7605 93.7253 91.6086 93.6181 91.4269 93.5547 C 91.2455 93.4915 91.0415 93.4598 90.8143 93.4598 C 90.6335 93.4598 90.4703 93.4859 90.3256 93.5381 C 90.181 93.5906 90.0573 93.6595 89.9553 93.7447 C 89.8536 93.83 89.7758 93.9293 89.7221 94.0421 C 89.6681 94.1548 89.6405 94.2691 89.6405 94.3847 L 89.6578 94.8637 C 89.6578 95.1171 89.5909 95.3125 89.4579 95.45 C 89.3245 95.5877 89.1503 95.6564 88.9344 95.6564 C 88.725 95.6564 88.5527 95.585 88.4197 95.4419 C 88.2866 95.2988 88.2197 95.1031 88.2197 94.8554 C 88.2197 94.6242 88.2838 94.3958 88.4115 94.17 C 88.5386 93.9443 88.7235 93.7405 88.9645 93.5591 C 89.2055 93.377 89.5031 93.2314 89.8577 93.1211 C 90.2123 93.0109 90.6159 92.9559 91.0698 92.9559 C 91.6708 92.9559 92.1814 93.0414 92.6013 93.2119 C 93.0206 93.3827 93.3244 93.6774 93.5111 94.0956 C 93.6138 94.3379 93.6643 94.8225 93.6643 95.5491 L 93.6643 98.1176 C 93.6643 98.4811 93.669 98.7729 93.6775 98.9931 C 93.6856 99.2135 93.6957 99.3648 93.707 99.4473 C 93.7352 99.6071 93.7823 99.7145 93.8473 99.7695 C 93.9122 99.8247 93.9875 99.8521 94.0726 99.8521 C 94.1294 99.8521 94.1828 99.8437 94.2345 99.8272 C 94.2857 99.8107 94.3453 99.7776 94.4131 99.7282 C 94.4809 99.6786 94.5609 99.6112 94.6516 99.5259 C 94.742 99.4403 94.8578 99.329 95 99.1912 L 95 99.6537 C 94.3588 100.4797 93.7525 100.8927 93.1797 100.8927 C 92.907 100.8927 92.6857 100.799 92.5159 100.6117 C 92.3458 100.4248 92.2608 100.1052 92.2608 99.6537 ZM 92.2608 99.117 L 92.2608 96.2347 C 91.8296 96.3998 91.4768 96.5403 91.2019 96.6559 C 90.9266 96.7715 90.7267 96.8651 90.6018 96.9366 C 90.1536 97.1844 89.8332 97.4391 89.6405 97.7006 C 89.4478 97.9621 89.3518 98.2498 89.3518 98.5636 C 89.3518 98.7618 89.3841 98.9449 89.4494 99.113 C 89.5147 99.2809 89.6022 99.4268 89.7127 99.5506 C 89.8232 99.6743 89.9522 99.771 90.1 99.8396 C 90.2478 99.9085 90.4003 99.9428 90.5591 99.9428 C 90.9903 99.9428 91.5572 99.6675 92.2608 99.117 Z" fill="#0070ba"/>
		</g>
	</g>
</svg>