<?xml version="1.0" encoding="UTF-8" standalone="no"?>
<!-- Generator: Adobe Fireworks 10, Export SVG Extension by Aaron Beall (http://fireworks.abeall.com) . Version: 0.6.1  -->

<svg
   xmlns:dc="http://purl.org/dc/elements/1.1/"
   xmlns:cc="http://creativecommons.org/ns#"
   xmlns:rdf="http://www.w3.org/1999/02/22-rdf-syntax-ns#"
   xmlns:svg="http://www.w3.org/2000/svg"
   xmlns="http://www.w3.org/2000/svg"
   xmlns:sodipodi="http://sodipodi.sourceforge.net/DTD/sodipodi-0.dtd"
   xmlns:inkscape="http://www.inkscape.org/namespaces/inkscape"
   id="logo-P%E1gina%201"
   viewBox="0 0 100 124"
   style="background-color:#eeeeee"
   version="1.1"
   xml:space="preserve"
   x="0px"
   y="0px"
   width="100px"
   height="124px"
   inkscape:version="0.48.4 r9939"
   sodipodi:docname="logo_blanco.svg"><metadata
     id="metadata52"><rdf:RDF><cc:Work
         rdf:about=""><dc:format>image/svg+xml</dc:format><dc:type
           rdf:resource="http://purl.org/dc/dcmitype/StillImage" /></cc:Work></rdf:RDF></metadata><defs
     id="defs50" /><sodipodi:namedview
     pagecolor="#1ab394"
     bordercolor="#666666"
     borderopacity="1"
     objecttolerance="10"
     gridtolerance="10"
     guidetolerance="10"
     inkscape:pageopacity="0"
     inkscape:pageshadow="2"
     inkscape:window-width="1366"
     inkscape:window-height="713"
     id="namedview48"
     showgrid="false"
     inkscape:zoom="2.6915677"
     inkscape:cx="41.846806"
     inkscape:cy="41.295084"
     inkscape:window-x="0"
     inkscape:window-y="30"
     inkscape:window-maximized="1"
     inkscape:current-layer="logo-P%E1gina%201" /><g
     id="g4"
     style="fill:#ffffff"><path
       style="fill:#ffffff"
       inkscape:connector-curvature="0"
       id="path6"
       d="m 49.2181,29.6784 c 3.7853,-1.3983 8.0648,-2.1033 12.3209,-2.1186 4.2497,0.0148 8.5241,0.7183 12.3047,2.1124 0.1252,0.0528 0.132,-0.1064 0.132,-0.1064 l 1.2338,-15.7672 c 0,0 0.0188,-0.0943 -0.0809,-0.0943 -0.0997,0 -0.2255,0 -0.3419,0 -0.1153,0 -0.1445,0.0835 -0.1445,0.0835 l -4.6846,9.9089 c 0,0 -0.0365,0.1032 -0.1414,0.0678 -0.7244,-0.1646 -2.1178,-0.414 -2.2019,-0.4284 -0.084,-0.0142 -0.084,-0.1137 -0.084,-0.1137 L 65.8388,13.072 c 0,0 -0.0109,-0.072 -0.0709,-0.072 -0.0601,0 -0.1232,0 -0.1743,0 -0.0522,0 -0.0736,0.0648 -0.0736,0.0648 l -2.8005,9.6957 c 0,0 -0.0261,0.0981 -0.1138,0.0968 -0.0882,-0.002 -0.7108,-0.0188 -1.0667,-0.0201 -0.3523,0.001 -0.7051,0.0083 -1.0585,0.02 -0.0955,0.0023 -0.121,-0.0967 -0.121,-0.0967 L 57.5397,13.06 c 0,0 -0.0089,-0.06 -0.0762,-0.06 -0.0146,0 -0.1206,0 -0.142,0 -0.0757,0 -0.0814,0.0694 -0.0814,0.0694 l -1.6925,10.153 c 0,0 -0.0157,0.1076 -0.1023,0.1169 -0.7364,0.1205 -1.465,0.2617 -2.1852,0.4258 -0.0871,0.0269 -0.1388,-0.0684 -0.1388,-0.0684 l -4.7012,-9.9439 c 0,0 -0.0272,-0.0485 -0.0814,-0.0485 -0.0548,0 -0.3915,0 -0.4296,0 -0.0386,0 -0.0428,0.0542 -0.0428,0.0542 l 1.2395,15.8323 c 0,0 0,0.1423 0.1123,0.0876 z" /><g
       id="g8"
       style="fill:#ffffff"><path
         style="fill:#ffffff"
         inkscape:connector-curvature="0"
         id="path10"
         d="m 71.4012,36.6945 c 0.0642,0.0359 0.0798,-0.0121 0.0798,-0.0279 6e-4,-0.1035 6e-4,-0.1605 6e-4,-0.1677 0,-0.2741 -0.0011,-0.4978 -0.0089,-0.7486 0,-0.0147 0,-0.0758 -0.0402,-0.1065 -0.0918,-0.069 -0.1811,-0.14 -0.2761,-0.2035 -1.0626,-0.7085 -2.3443,-1.0376 -3.648,-0.9506 -2.1507,0.1429 -2.7311,1.4548 -2.8866,2.2455 -0.0042,0.023 -0.0094,0.0465 -0.0131,0.0682 -0.0542,0.3137 0.1242,0.2633 0.2187,0.1388 0.3726,-0.4935 0.8648,-0.8939 1.4837,-1.1444 -0.1983,0.3151 -0.2875,0.6875 -0.2254,1.0677 0.1446,0.8903 1.061,1.4828 2.0469,1.3217 0.9848,-0.1608 1.6664,-1.014 1.5218,-1.9048 -0.0266,-0.1605 -0.0788,-0.3099 -0.1498,-0.4478 0.6853,0.2294 1.3079,0.5354 1.7285,0.7651 0.0068,0.0036 0.0893,0.0504 0.1681,0.0948 z" /><path
         style="fill:#ffffff"
         inkscape:connector-curvature="0"
         id="path12"
         d="m 67.4238,32.7107 c 1.6043,-0.0852 2.93,0.5681 3.6522,1.0282 0.1248,0.0788 0.2083,0.1328 0.2934,0.1984 0.0521,0.0397 0.1043,-0.0067 0.1002,-0.0409 -0.0449,-0.3348 -0.1002,-0.6393 -0.153,-0.9181 -0.0109,-0.0573 -0.0349,-0.1053 -0.0835,-0.1424 -0.0694,-0.0515 -0.1403,-0.101 -0.2124,-0.1491 -1.0411,-0.6984 -2.3605,-1.0748 -3.6344,-1.0077 -3.2932,0.1736 -4.4445,2.5395 -4.3239,4.8431 0.072,1.377 0.5114,2.1507 0.6612,2.1431 0.0418,-0.0025 0.0611,-0.1364 0.0433,-0.4616 -0.1179,-2.2434 0.381,-5.3208 3.6569,-5.493 z" /><path
         style="fill:#ffffff"
         inkscape:connector-curvature="0"
         id="path14"
         d="m 58.25,36.9422 c 0.0939,0.1245 0.2729,0.1749 0.2181,-0.1388 -0.0031,-0.0217 -0.0089,-0.0452 -0.013,-0.0682 -0.1556,-0.7907 -0.7354,-2.1026 -2.8872,-2.2455 -1.3026,-0.087 -2.5844,0.2421 -3.6475,0.9506 -0.0944,0.0635 -0.1842,0.1345 -0.2755,0.2035 -0.0407,0.0307 -0.0397,0.0918 -0.0407,0.1065 -0.0068,0.2508 -0.0079,0.4745 -0.0079,0.7486 0,0.0072 0,0.0642 0,0.1677 0,0.0158 0.0157,0.0638 0.0799,0.0279 0.0783,-0.0444 0.1607,-0.0912 0.1675,-0.0948 0.4207,-0.2297 1.0438,-0.5357 1.7285,-0.7651 -0.0715,0.1379 -0.1231,0.2873 -0.1487,0.4478 -0.1456,0.8908 0.5365,1.744 1.5203,1.9048 0.9863,0.1611 1.9023,-0.4314 2.0468,-1.3217 0.0621,-0.3802 -0.0266,-0.7526 -0.2244,-1.0677 0.6195,0.2505 1.1111,0.6509 1.4838,1.1444 z" /><path
         style="fill:#ffffff"
         inkscape:connector-curvature="0"
         id="path16"
         d="m 59.3543,38.6653 c 0.1487,0.0076 0.5882,-0.7661 0.6602,-2.1431 0.1211,-2.3036 -1.0313,-4.6695 -4.3234,-4.8431 -1.2739,-0.0671 -2.5933,0.3093 -3.6355,1.0077 -0.0715,0.0481 -0.1414,0.0976 -0.2109,0.1491 -0.049,0.0371 -0.0735,0.0851 -0.0845,0.1424 -0.0527,0.2788 -0.108,0.5833 -0.1529,0.9181 -0.0037,0.0342 0.0485,0.0806 0.1007,0.0409 0.0846,-0.0656 0.1686,-0.1196 0.2928,-0.1984 0.7239,-0.4601 2.0479,-1.1134 3.6527,-1.0282 3.276,0.1722 3.7739,3.2496 3.657,5.493 -0.0183,0.3252 5e-4,0.4591 0.0438,0.4616 z" /></g><path
       style="fill:#ffffff"
       inkscape:connector-curvature="0"
       id="path18"
       d="M 62.2712,73.476 C 48.7348,72.7639 40.0567,68.3459 29.505,68.3459 c -10.7698,0 -13.515,4.1552 -13.515,7.0886 0,2.7504 2.6549,5.1951 4.4539,5.2549 l 0.2531,0 c 0,0 0.1107,-0.0703 0.1248,-0.1052 1.6439,-3.9783 5.6108,-5.1497 10.3001,-5.1497 6.6181,0 17.2496,2.8319 22.3152,2.8319 5.5879,0 8.4995,-3.6516 9.0251,-4.3016 0.3611,-0.4464 -0.1169,-0.485 -0.191,-0.4888 z" /><path
       style="fill:#ffffff"
       inkscape:connector-curvature="0"
       id="path20"
       d="m 78.8815,63.8945 c -3.6428,2.266 -7.676,3.2459 -11.9415,3.4599 -7.7783,0.3903 -17.1025,-2.0455 -25.6542,-3.7529 l -4.7712,-12.513 4.9998,-1.7973 c 0.7531,-0.2716 1.4477,-1.0293 1.1862,-2.1504 -1.0996,-3.7264 -3.4309,-13.0126 -1.4305,-19.0697 0.0653,-0.1979 0.2547,-0.863 -0.0553,-1.1095 -0.1258,-0.0998 -0.2933,-0.1028 -0.4483,-0.0082 -0.1065,0.0659 -0.4327,0.2656 -1.0897,1.8599 -1.2239,2.9709 -2.3329,8.5907 -0.6613,18.4944 0.0616,0.338 0.0783,0.6041 -0.5005,0.843 -0.5391,0.2215 -1.9686,0.7276 -2.7415,0.9953 L 28.908,31.1372 c 0.6404,0.4564 1.2979,0.9231 1.4566,1.0236 0.5443,0.3441 0.6607,0.3626 0.8476,0.2953 0.1873,-0.0672 0.3715,-0.2621 0.0589,-0.6894 L 26.429,25.9484 C 26.334,25.8196 26.0992,25.5048 25.8429,25.609 l 0,-2e-4 -0.0016,5e-4 c 0,0 0,4e-4 -0.0021,7e-4 l -5e-4,10e-5 -0.0021,8e-4 0,4e-4 c -0.2635,0.0822 -0.2442,0.4753 -0.2359,0.6354 l -0.0375,7.5742 c 0.0302,0.529 0.2959,0.5619 0.4832,0.4944 0.1869,-0.0675 0.2646,-0.1561 0.4666,-0.7686 0.0579,-0.1784 0.2693,-0.9583 0.4734,-1.7184 l 6.1463,18.2684 c -0.7661,0.2857 -2.1898,0.8064 -2.7462,0.9791 -0.5986,0.1848 -0.7536,-0.0313 -0.9222,-0.3305 -5.0029,-8.7048 -9.429,-12.333 -12.2614,-13.8438 -1.5197,-0.811 -1.8976,-0.7577 -2.0218,-0.74 -0.18,0.0256 -0.3069,0.1344 -0.3403,0.2917 -0.0835,0.3884 0.4859,0.7802 0.6618,0.8912 5.3912,3.3975 9.4938,12.0462 11.0141,15.6205 0.5099,1.0324 1.527,1.1744 2.2806,0.9025 l 4.9988,-1.8007 3.6397,10.8182 c -3.5468,-0.6015 -6.887,-0.9714 -9.8352,-0.8232 -5.3384,0.2681 -9.6988,2.5574 -12.2342,7.4158 -0.0966,0.188 0.0746,0.3417 0.2573,0.2285 3.6428,-2.2657 7.676,-3.2457 11.942,-3.4601 12.8261,-0.6437 27.3974,5.8923 39.3394,5.293 5.3384,-0.2685 9.6983,-2.5574 12.2337,-7.416 0.0976,-0.1876 -0.0746,-0.3415 -0.2573,-0.2284 z" /><path
       style="fill:#ffffff"
       inkscape:connector-curvature="0"
       id="path22"
       d="m 70.0657,55.7753 c 1.1481,0.7047 2.1533,1.031 3.0181,1.1559 2.0009,0.2902 3.9105,-0.4566 4.5927,-3.1495 0.0109,-0.0417 -0.0063,-0.0703 -0.047,-0.0851 -0.5652,-0.2033 -4.6778,-1.9604 -3.1512,-9.643 5e-4,-0.0372 0.0459,-0.0943 0.0626,-0.1088 1.6252,-1.4352 2.7567,-2.4 3.016,-2.619 0.0387,-0.0315 -0.0036,-0.0555 -0.0323,-0.0618 -0.8408,-0.1785 -0.7432,-1.445 -0.7432,-1.445 l 0.0658,-4.338 c 0,0 0.2353,-4.6779 -5.0989,-5.1172 -0.0851,-0.0072 -0.1827,0.0234 -0.0914,0.125 0.3946,0.4401 1.323,2.0132 1.323,6.2649 0,1.7948 -0.501,2.7384 -0.501,2.7384 l -1.0516,2.7911 c 0,0 -0.7009,2.1727 -0.6362,3.9674 0.0444,1.1976 0.0297,1.582 0.0146,1.7049 -0.0068,0.0612 -0.0376,0.0579 -0.0835,0.0559 -0.5866,-0.0244 -4.7299,-0.3397 -5.9752,-4.5916 -0.0062,-0.0195 -0.0417,-0.0571 -0.0798,-0.0571 -0.0992,0 -0.2735,0 -0.3544,0 -0.0224,0 -0.0501,0.0169 -0.0449,0.0464 0.0334,0.2066 0.1712,1.0457 0.1775,1.0987 0.0068,0.0605 -0.0032,0.0928 -0.0345,0.1145 -0.2254,0.1553 -1.2499,0.793 -2.8573,0.8047 -0.0058,0 -0.0105,4e-4 -0.0152,4e-4 -0.0041,0 -0.0099,-4e-4 -0.0146,-4e-4 -1.6085,-0.0117 -2.6314,-0.6494 -2.8584,-0.8047 -0.0313,-0.0217 -0.0407,-0.054 -0.0339,-0.1145 0.0068,-0.053 0.1445,-0.8921 0.1785,-1.0987 0.0041,-0.0295 -0.023,-0.0464 -0.0465,-0.0464 -0.0798,0 -0.2541,0 -0.3533,0 -0.0386,0 -0.0746,0.0376 -0.0799,0.0571 -1.2457,4.2519 -5.3896,4.5672 -5.9757,4.5916 -0.0454,0.002 -0.0767,0.0053 -0.0835,-0.0559 -0.0146,-0.1229 -0.0297,-0.5073 0.0146,-1.7049 0.0642,-1.7947 -0.6351,-3.9674 -0.6351,-3.9674 l -1.0532,-2.7911 c 0,0 -0.4999,-0.9436 -0.4999,-2.7384 0,-4.2517 0.9284,-5.8248 1.323,-6.2649 0.0908,-0.1016 -0.0068,-0.1322 -0.0919,-0.125 -5.3348,0.4393 -5.0984,5.1172 -5.0984,5.1172 l 0.0647,4.338 c 0,0 0.0987,1.2665 -0.7421,1.445 -0.0292,0.0063 -0.071,0.0303 -0.0329,0.0618 0.2599,0.219 1.3909,1.1838 3.0166,2.619 0.0156,0.0145 0.0605,0.0716 0.0631,0.1088 1.526,7.6826 -2.5865,9.4397 -3.1522,9.643 -0.0407,0.0148 -0.0574,0.0434 -0.0475,0.0851 0.6831,2.6929 2.5922,3.4397 4.5937,3.1495 0.8648,-0.1249 1.8699,-0.4512 3.0181,-1.1559 0.0371,-0.0259 0.1174,-0.0259 0.0569,0.1042 -0.1117,0.3161 -0.9071,2.1763 -4.0948,2.1763 -1.3689,-0.0512 -1.7624,-0.2386 -1.9211,-0.3263 -0.0198,-0.0109 -0.0647,0.0179 -0.0454,0.0628 0.3721,0.8598 1.5479,3.4956 4.1485,3.4956 4.397,0 6.2868,-3.8757 6.5295,-4.4023 0.0255,-0.0657 0.1111,-0.0815 0.132,0.0247 -0.0162,3.889 -3.8521,5.4289 -6.1724,5.4289 -0.0548,0 -0.0527,0.0584 -0.0016,0.0963 1.1262,0.8482 3.6475,2.306 6.066,2.1265 2.1074,-0.1565 3.4815,-1.787 3.7639,-2.7358 0.0219,-0.0742 0.1085,-0.0704 0.1315,0.0058 0.2871,0.9498 1.6602,2.5737 3.7624,2.73 2.4189,0.1795 4.9407,-1.2783 6.0665,-2.1265 0.0511,-0.0379 0.0527,-0.0963 -0.0021,-0.0963 -2.3204,0 -6.1568,-1.5399 -6.172,-5.4289 0.0214,-0.1062 0.1065,-0.0904 0.1331,-0.0247 0.2411,0.5266 2.1314,4.4023 6.5284,4.4023 2.6001,0 3.777,-2.6358 4.1491,-3.4956 0.0193,-0.0449 -0.0272,-0.0737 -0.046,-0.0628 -0.1576,0.0877 -0.5526,0.2751 -1.9221,0.3263 -3.1867,0 -3.9815,-1.8602 -4.0937,-2.1763 -0.0601,-0.1301 0.0193,-0.1301 0.0574,-0.1042 z m -4.4956,-4.8184 c -0.0533,-0.0089 -0.1002,0.0069 -0.1258,0.0552 -0.3304,0.5742 -0.7682,1.2632 -1.6711,1.2632 l -2.2238,0 -0.0219,0 -2.2243,0 c -0.9019,0 -1.3408,-0.689 -1.6706,-1.2632 -0.024,-0.0483 -0.0721,-0.0641 -0.1258,-0.0552 -1.3851,0.2654 -3.1168,0.3647 -5.2304,0.1768 -0.5407,-0.0479 -0.8747,-0.6013 -0.1837,-0.5477 3.3114,0.2559 7.1478,-0.5446 8.9724,-3.2483 0.0887,-0.1301 0.2797,-0.3397 0.4733,-0.3486 0.1942,0.0089 0.3857,0.2185 0.4734,0.3486 1.8245,2.7037 5.6615,3.5042 8.9729,3.2483 0.691,-0.0536 0.357,0.4998 -0.1847,0.5477 -2.1127,0.1879 -3.8443,0.0886 -5.2299,-0.1768 z" /><path
       style="fill:#ffffff"
       inkscape:connector-curvature="0"
       id="path24"
       d="m 63.5754,50.3519 c -0.369,-0.2765 -0.6451,-0.5534 -0.9827,-0.5534 l -2.1085,0 c -0.3377,0 -0.6143,0.2769 -0.9817,0.5534 -0.3079,0.2153 -0.3695,0.3074 -0.3695,0.3691 0,0.154 0.1853,0.154 0.1853,0.154 l 4.4413,0 c 0,0 0.1842,0 0.1842,-0.154 0,-0.0617 -0.0615,-0.1538 -0.3684,-0.3691 z" /></g><g
     id="g26"
     style="fill:#ffffff"><path
       style="fill:#ffffff"
       inkscape:connector-curvature="0"
       id="path28"
       d="m 15.8597,89.2891 0.2636,3.8074 -0.2636,0 c -0.1761,-0.5671 -0.3905,-1.0545 -0.6425,-1.462 -0.2532,-0.4073 -0.541,-0.7405 -0.8637,-0.9992 -0.3232,-0.2588 -0.6807,-0.4487 -1.0717,-0.57 -0.3914,-0.121 -0.817,-0.1816 -1.2764,-0.1816 -0.7711,0 -1.4547,0.1831 -2.05,0.5493 -0.5957,0.3662 -1.069,0.929 -1.4202,1.6888 -0.1933,0.4185 -0.3411,0.8933 -0.4428,1.4247 -0.102,0.5312 -0.1532,1.1272 -0.1532,1.788 0,1.0075 0.1676,1.8857 0.5019,2.6346 0.1701,0.3798 0.3844,0.713 0.6424,0.9993 0.258,0.2863 0.5514,0.5258 0.8803,0.7183 0.3289,0.193 0.6877,0.3388 1.0762,0.4379 0.3885,0.0989 0.7928,0.1485 1.2124,0.1485 0.4757,0 0.8872,-0.0466 1.2334,-0.1404 0.3461,-0.0936 0.6606,-0.2365 0.944,-0.4294 0.284,-0.1927 0.5577,-0.4347 0.8216,-0.7268 0.263,-0.2918 0.5543,-0.6329 0.8719,-1.024 l 0.2636,0.1651 c -0.2893,0.4955 -0.6016,0.925 -0.9359,1.2885 -0.3345,0.3634 -0.6973,0.6634 -1.089,0.9001 -0.3913,0.2369 -0.8154,0.4117 -1.272,0.5244 C 12.6334,100.9435 12.1416,101 11.6143,101 9.6967,101 8.217,100.3117 7.1738,98.9353 6.391,97.9111 6,96.7055 6,95.3181 6,94.6519 6.0929,94.0063 6.2806,93.3812 6.4673,92.7564 6.7573,92.1796 7.1477,91.6511 7.4201,91.2768 7.7308,90.9422 8.0798,90.6476 8.4285,90.353 8.8054,90.1054 9.2112,89.9044 c 0.4052,-0.201 0.8323,-0.3536 1.2805,-0.4584 0.4475,-0.1044 0.9064,-0.1569 1.3775,-0.1569 0.8342,0 1.6561,0.1983 2.4677,0.5946 0.2492,0.1267 0.4193,0.1872 0.5103,0.1816 0.1808,0 0.333,-0.0728 0.4545,-0.2188 0.1217,-0.1458 0.209,-0.3316 0.2598,-0.5574 l 0.2982,0 z" /><path
       style="fill:#ffffff"
       inkscape:connector-curvature="0"
       id="path30"
       d="m 21.9507,99.6537 c -0.8,0.6057 -1.3018,0.9527 -1.5058,1.0406 -0.301,0.1376 -0.6267,0.2064 -0.9789,0.2064 -0.2661,0 -0.5131,-0.0466 -0.7397,-0.1402 -0.2266,-0.0937 -0.4224,-0.2258 -0.5869,-0.3964 -0.1644,-0.1707 -0.2941,-0.3758 -0.387,-0.6154 -0.0941,-0.2394 -0.1409,-0.505 -0.1409,-0.7969 0,-0.2146 0.0302,-0.413 0.0892,-0.5947 0.0602,-0.1817 0.1494,-0.3537 0.2683,-0.5163 0.1196,-0.1621 0.2705,-0.3176 0.4554,-0.4665 0.1842,-0.1485 0.4011,-0.2944 0.6506,-0.4377 0.5837,-0.3358 1.5425,-0.7376 2.8757,-1.2057 l 0,-0.2973 c 0,-0.3799 -0.0329,-0.6965 -0.0988,-0.9498 -0.0647,-0.2532 -0.1582,-0.4556 -0.28,-0.6071 -0.1221,-0.1514 -0.274,-0.2586 -0.4557,-0.322 -0.1808,-0.0632 -0.3848,-0.0949 -0.612,-0.0949 -0.1814,0 -0.3446,0.0261 -0.4893,0.0783 -0.1446,0.0525 -0.2683,0.1214 -0.3697,0.2066 -0.1023,0.0853 -0.1801,0.1846 -0.2344,0.2974 -0.0534,0.1127 -0.0807,0.227 -0.0807,0.3426 l 0.017,0.479 c 0,0.2534 -0.0666,0.4488 -0.1999,0.5863 -0.1334,0.1377 -0.3079,0.2064 -0.5232,0.2064 -0.2097,0 -0.3813,-0.0714 -0.5147,-0.2145 -0.1334,-0.1431 -0.1996,-0.3388 -0.1996,-0.5865 0,-0.2312 0.0637,-0.4596 0.1914,-0.6854 0.1274,-0.2257 0.3117,-0.4295 0.5524,-0.6109 0.2413,-0.1821 0.5395,-0.3277 0.8941,-0.438 0.3537,-0.1102 0.758,-0.1652 1.2115,-0.1652 0.601,0 1.1116,0.0855 1.5315,0.256 0.4193,0.1708 0.7231,0.4655 0.9102,0.8837 0.1016,0.2423 0.1534,0.7269 0.1534,1.4535 l 0,2.5685 c 0,0.3635 0.0035,0.6553 0.0123,0.8755 0.0084,0.2204 0.0188,0.3717 0.0301,0.4542 0.0285,0.1598 0.0756,0.2672 0.1403,0.3222 0.0653,0.0552 0.1406,0.0826 0.225,0.0826 0.0574,0 0.1114,-0.0084 0.1619,-0.0249 0.0512,-0.0165 0.1105,-0.0496 0.1786,-0.099 0.0684,-0.0496 0.1478,-0.117 0.2385,-0.2023 0.0904,-0.0856 0.2069,-0.1969 0.3487,-0.3347 l 0,0.4625 c -0.6415,0.826 -1.2478,1.239 -1.8206,1.239 -0.2721,0 -0.4933,-0.0937 -0.6634,-0.281 -0.1705,-0.1869 -0.2549,-0.5065 -0.2549,-0.958 z m 0,-0.5367 0,-2.8823 c -0.4318,0.1651 -0.7846,0.3056 -1.0595,0.4212 -0.2753,0.1156 -0.4752,0.2092 -0.6001,0.2807 -0.4475,0.2478 -0.7686,0.5025 -0.961,0.764 -0.193,0.2615 -0.2896,0.5492 -0.2896,0.863 0,0.1982 0.0329,0.3813 0.0982,0.5494 0.0653,0.1679 0.1531,0.3138 0.2636,0.4376 0.1108,0.1237 0.2398,0.2204 0.387,0.289 0.1472,0.0689 0.301,0.1032 0.4595,0.1032 0.4309,0 0.9983,-0.2753 1.7019,-0.8258 z" /><path
       style="fill:#ffffff"
       inkscape:connector-curvature="0"
       id="path32"
       d="m 27.8387,94.5664 c 0.5668,-0.5505 0.9014,-0.8672 1.0034,-0.9497 0.2554,-0.2092 0.5304,-0.3717 0.8254,-0.4872 0.295,-0.1157 0.5869,-0.1736 0.8762,-0.1736 0.4931,0 0.9142,0.1362 1.2632,0.4089 0.3487,0.2724 0.5828,0.6731 0.7018,1.2016 0.584,-0.6552 1.0771,-1.0874 1.4801,-1.2966 0.4026,-0.2092 0.8169,-0.3139 1.2425,-0.3139 0.2834,0 0.5498,0.0469 0.799,0.1406 0.2498,0.0935 0.4673,0.2491 0.6509,0.4665 0.1846,0.2175 0.3305,0.508 0.4381,0.8713 0.1083,0.3634 0.162,0.8121 0.162,1.3461 l 0,3.254 c 0,0.2477 0.0069,0.4612 0.021,0.6399 0.0144,0.1791 0.0584,0.3263 0.1321,0.4419 0.0735,0.1156 0.1899,0.1998 0.3487,0.2519 0.1588,0.0524 0.3829,0.0786 0.6723,0.0786 l 0,0.2972 -3.8455,0 0,-0.2972 0.1613,0 c 0.2837,0 0.5134,-0.0441 0.6898,-0.1322 0.1754,-0.088 0.3003,-0.2479 0.3741,-0.479 0.0226,-0.0826 0.0342,-0.3497 0.0342,-0.8011 l 0,-3.254 c 0,-0.3634 -0.0289,-0.662 -0.0857,-0.896 -0.0568,-0.234 -0.1399,-0.4212 -0.2504,-0.5616 -0.1108,-0.1406 -0.2458,-0.2381 -0.4043,-0.2932 -0.1588,-0.0551 -0.3433,-0.0827 -0.5529,-0.0827 -0.1532,0 -0.302,0.0166 -0.447,0.0495 -0.1443,0.0332 -0.2962,0.0911 -0.4547,0.1736 -0.1588,0.0825 -0.3302,0.1913 -0.515,0.3261 -0.1836,0.1351 -0.387,0.3043 -0.6079,0.5079 l 0.0169,4.0304 c 0,0.2697 0.005,0.4805 0.0166,0.6319 0.012,0.1514 0.033,0.2671 0.0641,0.3466 0.0314,0.08 0.0753,0.1393 0.1318,0.1778 0.0568,0.0385 0.1274,0.0824 0.2128,0.132 0.0797,0.0441 0.1898,0.0757 0.3317,0.095 0.1422,0.0192 0.312,0.029 0.5103,0.029 l 0,0.2972 -3.9381,0 0,-0.2972 c 0.306,0 0.5455,-0.0208 0.7178,-0.062 0.1738,-0.0411 0.2997,-0.1157 0.3791,-0.223 0.08,-0.1074 0.128,-0.2519 0.1447,-0.4335 0.0172,-0.1818 0.0257,-0.413 0.0257,-0.6938 l 0,-3.254 c 0,-0.3523 -0.0333,-0.647 -0.0976,-0.8835 -0.0656,-0.2368 -0.1572,-0.4267 -0.2771,-0.5699 -0.1183,-0.1432 -0.2593,-0.2464 -0.4212,-0.3099 -0.1613,-0.0632 -0.3386,-0.0948 -0.5316,-0.0948 -0.1868,0 -0.3801,0.0345 -0.5785,0.1032 -0.1983,0.0687 -0.3869,0.1543 -0.5655,0.2561 -0.1786,0.1018 -0.3421,0.2145 -0.4893,0.3385 -0.1475,0.1239 -0.2689,0.2436 -0.3653,0.3593 l 0,4.055 c 0,0.2588 0.0082,0.464 0.0254,0.6152 0.0173,0.1515 0.0424,0.2725 0.076,0.3633 0.0345,0.0909 0.0784,0.1584 0.1321,0.2025 0.054,0.044 0.1152,0.0854 0.183,0.1238 0.1421,0.0716 0.4255,0.1075 0.8511,0.1075 l 0,0.2972 -3.854,0 0,-0.2972 c 0.2608,0 0.4692,-0.0194 0.6249,-0.0579 0.1566,-0.0385 0.2752,-0.1087 0.3578,-0.2107 0.0825,-0.1017 0.1362,-0.2447 0.1613,-0.4294 0.0257,-0.1843 0.0386,-0.4225 0.0386,-0.7143 l 0,-2.8905 c 0,-0.49 -0.0085,-0.8742 -0.0254,-1.1521 -0.0173,-0.278 -0.0487,-0.4873 -0.0942,-0.6278 -0.0452,-0.1402 -0.107,-0.227 -0.1864,-0.2602 -0.08,-0.0328 -0.1817,-0.0494 -0.3066,-0.0494 -0.1591,0 -0.3493,0.0412 -0.57,0.1237 l -0.1274,-0.2972 2.3476,-0.925 0.3662,0 0,1.6105 z" /><path
       style="fill:#ffffff"
       inkscape:connector-curvature="0"
       id="path34"
       d="m 43.662,99.6537 c -0.7993,0.6057 -1.3012,0.9527 -1.5052,1.0406 -0.3013,0.1376 -0.627,0.2064 -0.9782,0.2064 -0.2668,0 -0.5138,-0.0466 -0.7404,-0.1402 -0.2269,-0.0937 -0.4224,-0.2258 -0.5875,-0.3964 -0.1635,-0.1707 -0.2928,-0.3758 -0.387,-0.6154 -0.0929,-0.2394 -0.1399,-0.505 -0.1399,-0.7969 0,-0.2146 0.0298,-0.413 0.0891,-0.5947 0.0599,-0.1817 0.1491,-0.3537 0.2683,-0.5163 0.119,-0.1621 0.2709,-0.3176 0.4551,-0.4665 0.1842,-0.1485 0.4011,-0.2944 0.6506,-0.4377 0.5844,-0.3358 1.5425,-0.7376 2.8751,-1.2057 l 0,-0.2973 c 0,-0.3799 -0.0323,-0.6965 -0.0976,-0.9498 -0.0653,-0.2532 -0.1588,-0.4556 -0.2806,-0.6071 -0.1214,-0.1514 -0.274,-0.2586 -0.4554,-0.322 -0.181,-0.0632 -0.3854,-0.0949 -0.6123,-0.0949 -0.1811,0 -0.3439,0.0261 -0.4892,0.0783 -0.1447,0.0525 -0.2674,0.1214 -0.3698,0.2066 -0.1023,0.0853 -0.1801,0.1846 -0.2338,0.2974 -0.0543,0.1127 -0.0816,0.227 -0.0816,0.3426 l 0.0173,0.479 c 0,0.2534 -0.0669,0.4488 -0.1993,0.5863 -0.1337,0.1377 -0.3082,0.2064 -0.5235,0.2064 -0.2099,0 -0.3819,-0.0714 -0.5147,-0.2145 -0.1334,-0.1431 -0.1999,-0.3388 -0.1999,-0.5865 0,-0.2312 0.064,-0.4596 0.1914,-0.6854 0.1275,-0.2257 0.312,-0.4295 0.5533,-0.6109 0.2405,-0.1821 0.5383,-0.3277 0.8926,-0.438 0.3547,-0.1102 0.7589,-0.1652 1.2121,-0.1652 0.6019,0 1.1122,0.0855 1.5315,0.256 0.4196,0.1708 0.7231,0.4655 0.9102,0.8837 0.1023,0.2423 0.1528,0.7269 0.1528,1.4535 l 0,2.5685 c 0,0.3635 0.0047,0.6553 0.0132,0.8755 0.0088,0.2204 0.0188,0.3717 0.0298,0.4542 0.0282,0.1598 0.075,0.2672 0.1403,0.3222 0.0653,0.0552 0.1406,0.0826 0.2256,0.0826 0.0565,0 0.1105,-0.0084 0.1614,-0.0249 0.0511,-0.0165 0.1107,-0.0496 0.1792,-0.099 0.0678,-0.0496 0.1472,-0.117 0.2382,-0.2023 0.09,-0.0856 0.2065,-0.1969 0.348,-0.3347 l 0,0.4625 c -0.6405,0.826 -1.2472,1.239 -1.8203,1.239 -0.2724,0 -0.4936,-0.0937 -0.6631,-0.281 -0.1701,-0.1869 -0.2558,-0.5065 -0.2558,-0.958 z m 0,-0.5367 0,-2.8823 c -0.4309,0.1651 -0.7833,0.3056 -1.0589,0.4212 -0.2752,0.1156 -0.4748,0.2092 -0.5994,0.2807 -0.4482,0.2478 -0.7686,0.5025 -0.962,0.764 -0.192,0.2615 -0.2881,0.5492 -0.2881,0.863 0,0.1982 0.032,0.3813 0.097,0.5494 0.0659,0.1679 0.1532,0.3138 0.2643,0.4376 0.1101,0.1237 0.2391,0.2204 0.3869,0.289 0.1479,0.0689 0.3007,0.1032 0.4595,0.1032 0.4303,0 0.9977,-0.2753 1.7007,-0.8258 z" /><path
       style="fill:#ffffff"
       inkscape:connector-curvature="0"
       id="path36"
       d="m 49.6043,94.5581 c 0.9133,-1.0681 1.7836,-1.6022 2.6118,-1.6022 0.2897,0 0.5561,0.0469 0.7993,0.1406 0.2439,0.0935 0.4564,0.2505 0.6381,0.4705 0.1811,0.2204 0.3232,0.5122 0.4256,0.8754 0.1016,0.3635 0.1531,0.8178 0.1531,1.3629 l 0,3.2291 c 0,0.325 0.0182,0.581 0.0549,0.7679 0.0374,0.1873 0.1011,0.329 0.1915,0.4255 0.091,0.0964 0.2128,0.1569 0.3659,0.1817 0.1529,0.0248 0.3459,0.0372 0.5781,0.0372 l 0,0.2972 -3.853,0 0,-0.2972 0.1613,0 c 0.2555,0 0.4554,-0.0219 0.6001,-0.066 0.1446,-0.0441 0.2535,-0.1199 0.3273,-0.2273 0.0741,-0.1074 0.1205,-0.2518 0.1403,-0.4335 0.0201,-0.1818 0.0304,-0.4101 0.0304,-0.6855 l 0,-3.097 c 0,-0.6882 -0.0929,-1.1878 -0.2774,-1.4991 -0.1836,-0.3109 -0.4943,-0.4665 -0.9309,-0.4665 -0.6757,0 -1.3473,0.3579 -2.0164,1.0736 l 0,3.989 c 0,0.501 0.0314,0.8177 0.0938,0.9498 0.0396,0.0824 0.0835,0.1542 0.1315,0.2147 0.0481,0.0605 0.1133,0.1088 0.1952,0.1447 0.0826,0.0357 0.1909,0.0618 0.3239,0.0782 0.1334,0.0165 0.3076,0.0249 0.5232,0.0249 l 0,0.2972 -3.8533,0 0,-0.2972 0.1694,0 c 0.204,0 0.3713,-0.0219 0.5019,-0.066 0.1305,-0.0441 0.2347,-0.1213 0.3107,-0.2314 0.0768,-0.1102 0.129,-0.2545 0.1572,-0.4335 0.0289,-0.1789 0.043,-0.406 0.043,-0.6814 l 0,-2.8079 c 0,-0.8976 -0.0226,-1.4509 -0.0681,-1.6601 -0.0402,-0.1982 -0.1039,-0.3331 -0.1915,-0.4046 -0.0878,-0.0716 -0.2052,-0.1074 -0.353,-0.1074 -0.1588,0 -0.349,0.0412 -0.5696,0.1237 l -0.1281,-0.2972 2.3482,-0.925 0.3656,0 0,1.6022 z" /><path
       style="fill:#ffffff"
       inkscape:connector-curvature="0"
       id="path38"
       d="m 62.663,97.87 c -0.108,0.5009 -0.2706,0.9442 -0.4856,1.3295 -0.2149,0.3855 -0.4673,0.7103 -0.7566,0.9746 -0.2894,0.2642 -0.6073,0.4639 -0.9529,0.5989 -0.3464,0.1348 -0.7036,0.2022 -1.0717,0.2022 -0.4369,0 -0.8543,-0.0937 -1.2504,-0.2809 -0.3979,-0.1871 -0.7479,-0.4542 -1.0513,-0.8011 -0.3032,-0.3468 -0.5455,-0.7666 -0.7272,-1.2592 -0.1811,-0.4928 -0.2721,-1.0475 -0.2721,-1.6642 0,-0.5948 0.0998,-1.1385 0.2981,-1.6313 0.1977,-0.4927 0.4658,-0.9151 0.8038,-1.2675 0.3374,-0.3525 0.7315,-0.6263 1.1819,-0.8219 0.4513,-0.1954 0.929,-0.2932 1.434,-0.2932 0.3797,0 0.7293,0.055 1.0504,0.1652 0.3201,0.1103 0.5966,0.2533 0.8295,0.4295 0.2322,0.1763 0.4152,0.3717 0.5486,0.5864 0.1334,0.2148 0.2002,0.4267 0.2002,0.6359 0,0.2093 -0.0684,0.3787 -0.2043,0.5079 -0.1362,0.1295 -0.3321,0.194 -0.5869,0.194 -0.1306,0 -0.2517,-0.0135 -0.3619,-0.0412 -0.1107,-0.0275 -0.2068,-0.0771 -0.2887,-0.1487 -0.0828,-0.0714 -0.1494,-0.1706 -0.2005,-0.2973 -0.0512,-0.1266 -0.0851,-0.2891 -0.1017,-0.4872 -0.0289,-0.325 -0.1406,-0.5711 -0.3365,-0.7392 -0.1958,-0.1679 -0.472,-0.2519 -0.8291,-0.2519 -0.3346,0 -0.6296,0.073 -0.8848,0.2189 -0.2551,0.1459 -0.4707,0.344 -0.6468,0.5946 -0.1757,0.2505 -0.3069,0.5424 -0.3954,0.8755 -0.0876,0.3331 -0.1318,0.6867 -0.1318,1.0612 0,0.4406 0.0577,0.8658 0.1745,1.2759 0.1161,0.4101 0.2834,0.775 0.5015,1.0942 0.219,0.3194 0.4836,0.5756 0.7959,0.7681 0.3116,0.1928 0.6663,0.289 1.063,0.289 0.2382,0 0.4654,-0.0288 0.681,-0.0866 0.215,-0.0577 0.4224,-0.1581 0.6208,-0.3014 0.1983,-0.1431 0.3901,-0.3399 0.574,-0.5906 0.1842,-0.2504 0.3612,-0.5686 0.532,-0.9539 l 0.247,0.1158 z" /><path
       style="fill:#ffffff"
       inkscape:connector-curvature="0"
       id="path40"
       d="m 65.9574,89 0,5.5335 c 0.1814,-0.1707 0.3618,-0.3497 0.5404,-0.5371 0.1779,-0.187 0.37,-0.3577 0.5737,-0.5119 0.2043,-0.1541 0.4271,-0.2808 0.6679,-0.3799 0.2413,-0.0991 0.5147,-0.1487 0.8206,-0.1487 0.4143,0 0.752,0.0868 1.0128,0.2602 0.2608,0.1735 0.4645,0.4045 0.6123,0.6937 0.1478,0.289 0.248,0.6182 0.3019,0.9871 0.0537,0.3687 0.081,0.7486 0.081,1.1396 l 0,2.9979 c 0,0.2533 0.0047,0.4665 0.0132,0.6399 0.0082,0.1737 0.0477,0.314 0.1189,0.4213 0.0703,0.1073 0.1843,0.1885 0.3402,0.2436 0.156,0.0551 0.3839,0.0909 0.6848,0.1075 l 0,0.2972 -3.8279,0 0,-0.2972 0.1783,0 c 0.2551,0 0.4535,-0.0219 0.596,-0.066 0.1409,-0.0441 0.2488,-0.1199 0.3226,-0.2273 0.0734,-0.1074 0.1196,-0.2518 0.1368,-0.4335 0.0163,-0.1818 0.0251,-0.4101 0.0251,-0.6855 l 0,-2.9979 c 0,-0.2368 -0.0044,-0.4778 -0.0131,-0.7227 -0.0085,-0.2449 -0.0496,-0.468 -0.1231,-0.6689 -0.0737,-0.201 -0.1971,-0.3662 -0.3703,-0.4957 -0.1729,-0.1292 -0.4212,-0.194 -0.7441,-0.194 -0.1416,0 -0.284,0.0153 -0.4256,0.0455 -0.1415,0.0302 -0.2903,0.0853 -0.4463,0.1651 -0.1556,0.08 -0.3217,0.1899 -0.4977,0.3303 -0.1761,0.1406 -0.3682,0.3209 -0.5784,0.541 l 0,3.9973 c 0,0.2697 0.0056,0.4805 0.0169,0.6319 0.0116,0.1514 0.032,0.2684 0.064,0.3509 0.0311,0.0826 0.0735,0.1433 0.1271,0.1817 0.0543,0.0385 0.1237,0.0797 0.2091,0.1238 0.0794,0.0441 0.1898,0.0757 0.3317,0.095 0.1418,0.0192 0.3113,0.029 0.5106,0.029 l 0,0.2972 -3.8628,0 0,-0.2972 c 0.216,0 0.3986,-0.0124 0.5489,-0.0372 0.1504,-0.0248 0.2737,-0.0839 0.3697,-0.1777 0.0964,-0.0934 0.1667,-0.2354 0.2084,-0.4253 0.043,-0.1899 0.0641,-0.4471 0.0641,-0.7721 l 0,-6.8466 c 0,-0.8532 -0.0226,-1.3845 -0.0685,-1.5939 -0.0395,-0.1981 -0.1032,-0.333 -0.1908,-0.4045 -0.0882,-0.0716 -0.2055,-0.1075 -0.353,-0.1075 -0.1306,0 -0.3233,0.0441 -0.5788,0.1322 L 63.2351,89.925 65.5657,89 l 0.3917,0 z" /><path
       style="fill:#ffffff"
       inkscape:connector-curvature="0"
       id="path42"
       d="m 76.7953,99.6537 c -0.7994,0.6057 -1.3012,0.9527 -1.5052,1.0406 -0.3016,0.1376 -0.6274,0.2064 -0.9789,0.2064 -0.2661,0 -0.5131,-0.0466 -0.7403,-0.1402 -0.2266,-0.0937 -0.4219,-0.2258 -0.5863,-0.3964 -0.1645,-0.1707 -0.2941,-0.3758 -0.3876,-0.6154 -0.0938,-0.2394 -0.1403,-0.505 -0.1403,-0.7969 0,-0.2146 0.0295,-0.413 0.0895,-0.5947 0.0599,-0.1817 0.149,-0.3537 0.268,-0.5163 0.1189,-0.1621 0.2705,-0.3176 0.4547,-0.4665 0.1843,-0.1485 0.4011,-0.2944 0.6509,-0.4377 0.5841,-0.3358 1.5429,-0.7376 2.8755,-1.2057 l 0,-0.2973 c 0,-0.3799 -0.0327,-0.6965 -0.0983,-0.9498 -0.0652,-0.2532 -0.1581,-0.4556 -0.2802,-0.6071 -0.1221,-0.1514 -0.2737,-0.2586 -0.4554,-0.322 -0.1811,-0.0632 -0.3854,-0.0949 -0.6123,-0.0949 -0.1814,0 -0.3446,0.0261 -0.489,0.0783 -0.1447,0.0525 -0.2683,0.1214 -0.37,0.2066 -0.1026,0.0853 -0.1798,0.1846 -0.2341,0.2974 -0.0537,0.1127 -0.081,0.227 -0.081,0.3426 l 0.0173,0.479 c 0,0.2534 -0.0669,0.4488 -0.2,0.5863 -0.1333,0.1377 -0.3081,0.2064 -0.5231,0.2064 -0.21,0 -0.382,-0.0714 -0.5151,-0.2145 -0.1336,-0.1431 -0.1992,-0.3388 -0.1992,-0.5865 0,-0.2312 0.0637,-0.4596 0.1905,-0.6854 0.128,-0.2257 0.3125,-0.4295 0.553,-0.6109 0.2416,-0.1821 0.5391,-0.3277 0.8938,-0.438 0.354,-0.1102 0.7582,-0.1652 1.2114,-0.1652 0.6016,0 1.1123,0.0855 1.5316,0.256 0.4193,0.1708 0.7231,0.4655 0.9107,0.8837 0.1017,0.2423 0.1529,0.7269 0.1529,1.4535 l 0,2.5685 c 0,0.3635 0.0041,0.6553 0.0125,0.8755 0.0088,0.2204 0.0185,0.3717 0.0305,0.4542 0.0279,0.1598 0.075,0.2672 0.1399,0.3222 0.0656,0.0552 0.141,0.0826 0.2254,0.0826 0.0568,0 0.1108,-0.0084 0.1619,-0.0249 0.0512,-0.0165 0.1102,-0.0496 0.1786,-0.099 0.0681,-0.0496 0.1472,-0.117 0.2382,-0.2023 0.0904,-0.0856 0.2068,-0.1969 0.3484,-0.3347 l 0,0.4625 c -0.6409,0.826 -1.2476,1.239 -1.82,1.239 -0.2724,0 -0.4937,-0.0937 -0.6635,-0.281 -0.1704,-0.1869 -0.2554,-0.5065 -0.2554,-0.958 z m 0,-0.5367 0,-2.8823 c -0.4312,0.1651 -0.7837,0.3056 -1.0596,0.4212 -0.2746,0.1156 -0.4745,0.2092 -0.5994,0.2807 -0.4479,0.2478 -0.7686,0.5025 -0.9613,0.764 -0.1927,0.2615 -0.2887,0.5492 -0.2887,0.863 0,0.1982 0.0323,0.3813 0.0969,0.5494 0.0656,0.1679 0.1538,0.3138 0.264,0.4376 0.1108,0.1237 0.2401,0.2204 0.3873,0.289 0.1472,0.0689 0.3009,0.1032 0.4591,0.1032 0.4312,0 0.9983,-0.2753 1.7017,-0.8258 z" /><path
       style="fill:#ffffff"
       inkscape:connector-curvature="0"
       id="path44"
       d="m 86.7309,97.87 c -0.1073,0.5009 -0.2693,0.9442 -0.4843,1.3295 -0.2159,0.3855 -0.4679,0.7103 -0.7573,0.9746 -0.2893,0.2642 -0.6069,0.4639 -0.9528,0.5989 -0.3465,0.1348 -0.703,0.2022 -1.0721,0.2022 -0.4365,0 -0.854,-0.0937 -1.2506,-0.2809 -0.3967,-0.1871 -0.7473,-0.4542 -1.0508,-0.8011 -0.3035,-0.3468 -0.5454,-0.7666 -0.7268,-1.2592 -0.1811,-0.4928 -0.2725,-1.0475 -0.2725,-1.6642 0,-0.5948 0.0992,-1.1385 0.2982,-1.6313 0.1977,-0.4927 0.466,-0.9151 0.8037,-1.2675 0.3371,-0.3525 0.7313,-0.6263 1.182,-0.8219 0.4513,-0.1954 0.9289,-0.2932 1.4339,-0.2932 0.3801,0 0.73,0.055 1.0501,0.1652 0.3205,0.1103 0.5973,0.2533 0.8301,0.4295 0.232,0.1763 0.4153,0.3717 0.5483,0.5864 0.1334,0.2148 0.2002,0.4267 0.2002,0.6359 0,0.2093 -0.068,0.3787 -0.2043,0.5079 -0.1365,0.1295 -0.3317,0.194 -0.5868,0.194 -0.1303,0 -0.2514,-0.0135 -0.3613,-0.0412 -0.1114,-0.0275 -0.2074,-0.0771 -0.2893,-0.1487 -0.0826,-0.0714 -0.1494,-0.1706 -0.2006,-0.2973 -0.0508,-0.1266 -0.0847,-0.2891 -0.1014,-0.4872 -0.0285,-0.325 -0.1402,-0.5711 -0.3367,-0.7392 -0.1952,-0.1679 -0.4717,-0.2519 -0.8292,-0.2519 -0.3345,0 -0.6292,0.073 -0.885,0.2189 -0.2548,0.1459 -0.4701,0.344 -0.6462,0.5946 -0.1758,0.2505 -0.3073,0.5424 -0.3958,0.8755 -0.0875,0.3331 -0.1318,0.6867 -0.1318,1.0612 0,0.4406 0.0584,0.8658 0.1742,1.2759 0.1164,0.4101 0.284,0.775 0.5018,1.0942 0.2191,0.3194 0.4837,0.5756 0.7959,0.7681 0.3117,0.1928 0.6663,0.289 1.0636,0.289 0.2376,0 0.4648,-0.0288 0.6805,-0.0866 0.2156,-0.0577 0.4224,-0.1581 0.6207,-0.3014 0.1984,-0.1431 0.3901,-0.3399 0.5737,-0.5906 0.1849,-0.2504 0.3619,-0.5686 0.5323,-0.9539 l 0.2464,0.1158 z" /><path
       style="fill:#ffffff"
       inkscape:connector-curvature="0"
       id="path46"
       d="m 92.2608,99.6537 c -0.7997,0.6057 -1.3015,0.9527 -1.5058,1.0406 -0.301,0.1376 -0.6268,0.2064 -0.9783,0.2064 -0.2667,0 -0.5131,-0.0466 -0.7397,-0.1402 -0.2275,-0.0937 -0.4227,-0.2258 -0.5872,-0.3964 -0.1648,-0.1707 -0.2938,-0.3758 -0.3873,-0.6154 -0.0932,-0.2394 -0.1406,-0.505 -0.1406,-0.7969 0,-0.2146 0.0305,-0.413 0.0895,-0.5947 0.0593,-0.1817 0.1487,-0.3537 0.2683,-0.5163 0.1189,-0.1621 0.2705,-0.3176 0.4554,-0.4665 0.1842,-0.1485 0.4011,-0.2944 0.6499,-0.4377 0.5844,-0.3358 1.5429,-0.7376 2.8758,-1.2057 l 0,-0.2973 c 0,-0.3799 -0.0327,-0.6965 -0.0976,-0.9498 -0.0653,-0.2532 -0.1595,-0.4556 -0.2806,-0.6071 -0.1221,-0.1514 -0.274,-0.2586 -0.4557,-0.322 -0.1814,-0.0632 -0.3854,-0.0949 -0.6126,-0.0949 -0.1808,0 -0.344,0.0261 -0.4887,0.0783 -0.1446,0.0525 -0.2683,0.1214 -0.3703,0.2066 -0.1017,0.0853 -0.1795,0.1846 -0.2332,0.2974 -0.054,0.1127 -0.0816,0.227 -0.0816,0.3426 l 0.0173,0.479 c 0,0.2534 -0.0669,0.4488 -0.1999,0.5863 -0.1334,0.1377 -0.3076,0.2064 -0.5235,0.2064 -0.2094,0 -0.3817,-0.0714 -0.5147,-0.2145 -0.1331,-0.1431 -0.2,-0.3388 -0.2,-0.5865 0,-0.2312 0.0641,-0.4596 0.1918,-0.6854 0.1271,-0.2257 0.312,-0.4295 0.553,-0.6109 0.241,-0.1821 0.5386,-0.3277 0.8932,-0.438 0.3546,-0.1102 0.7582,-0.1652 1.2121,-0.1652 0.601,0 1.1116,0.0855 1.5315,0.256 0.4193,0.1708 0.7231,0.4655 0.9098,0.8837 0.1027,0.2423 0.1532,0.7269 0.1532,1.4535 l 0,2.5685 c 0,0.3635 0.0047,0.6553 0.0132,0.8755 0.0081,0.2204 0.0182,0.3717 0.0295,0.4542 0.0282,0.1598 0.0753,0.2672 0.1403,0.3222 0.0649,0.0552 0.1402,0.0826 0.2253,0.0826 0.0568,0 0.1102,-0.0084 0.1619,-0.0249 0.0512,-0.0165 0.1108,-0.0496 0.1786,-0.099 0.0678,-0.0496 0.1478,-0.117 0.2385,-0.2023 C 94.742,99.4403 94.8578,99.329 95,99.1912 l 0,0.4625 c -0.6412,0.826 -1.2475,1.239 -1.8203,1.239 -0.2727,0 -0.494,-0.0937 -0.6638,-0.281 -0.1701,-0.1869 -0.2551,-0.5065 -0.2551,-0.958 z m 0,-0.5367 0,-2.8823 c -0.4312,0.1651 -0.784,0.3056 -1.0589,0.4212 -0.2753,0.1156 -0.4752,0.2092 -0.6001,0.2807 -0.4482,0.2478 -0.7686,0.5025 -0.9613,0.764 -0.1927,0.2615 -0.2887,0.5492 -0.2887,0.863 0,0.1982 0.0323,0.3813 0.0976,0.5494 0.0653,0.1679 0.1528,0.3138 0.2633,0.4376 0.1105,0.1237 0.2395,0.2204 0.3873,0.289 0.1478,0.0689 0.3003,0.1032 0.4591,0.1032 0.4312,0 0.9981,-0.2753 1.7017,-0.8258 z" /></g><rect
     style="fill:#ffffff"
     id="rect3051"
     width="22.663372"
     height="43.097561"
     x="-54.615009"
     y="12.540795" /></svg>