<?xml version="1.0" encoding="UTF-8" standalone="no"?>
<!-- Created with Inkscape (http://www.inkscape.org/) -->

<svg
   xmlns:dc="http://purl.org/dc/elements/1.1/"
   xmlns:cc="http://creativecommons.org/ns#"
   xmlns:rdf="http://www.w3.org/1999/02/22-rdf-syntax-ns#"
   xmlns:svg="http://www.w3.org/2000/svg"
   xmlns="http://www.w3.org/2000/svg"
   xmlns:sodipodi="http://sodipodi.sourceforge.net/DTD/sodipodi-0.dtd"
   xmlns:inkscape="http://www.inkscape.org/namespaces/inkscape"
   width="31"
   height="32"
   id="svg3036"
   version="1.1"
   inkscape:version="0.48.4 r9939"
   sodipodi:docname="camanchaca-white-icon.svg">
  <defs
     id="defs3038" />
  <sodipodi:namedview
     id="base"
     pagecolor="#ffffff"
     bordercolor="#666666"
     borderopacity="1.0"
     inkscape:pageopacity="0.0"
     inkscape:pageshadow="2"
     inkscape:zoom="7.9195959"
     inkscape:cx="57.050509"
     inkscape:cy="9.4025587"
     inkscape:document-units="px"
     inkscape:current-layer="layer1"
     showgrid="false"
     inkscape:window-width="1366"
     inkscape:window-height="713"
     inkscape:window-x="0"
     inkscape:window-y="30"
     inkscape:window-maximized="1" />
  <metadata
     id="metadata3041">
    <rdf:RDF>
      <cc:Work
         rdf:about="">
        <dc:format>image/svg+xml</dc:format>
        <dc:type
           rdf:resource="http://purl.org/dc/dcmitype/StillImage" />
        <dc:title></dc:title>
      </cc:Work>
    </rdf:RDF>
  </metadata>
  <g
     inkscape:label="Capa 1"
     inkscape:groupmode="layer"
     id="layer1"
     transform="translate(0,-1020.3622)">
    <g
       transform="matrix(0.47071882,0,0,0.47071882,-6.7083228,1014.3226)"
       id="g4"
       style="fill:#ffffff">
      <path
         style="fill:#ffffff"
         inkscape:connector-curvature="0"
         id="path6"
         d="m 49.2181,29.6784 c 3.7853,-1.3983 8.0648,-2.1033 12.3209,-2.1186 4.2497,0.0148 8.5241,0.7183 12.3047,2.1124 0.1252,0.0528 0.132,-0.1064 0.132,-0.1064 l 1.2338,-15.7672 c 0,0 0.0188,-0.0943 -0.0809,-0.0943 -0.0997,0 -0.2255,0 -0.3419,0 -0.1153,0 -0.1445,0.0835 -0.1445,0.0835 l -4.6846,9.9089 c 0,0 -0.0365,0.1032 -0.1414,0.0678 -0.7244,-0.1646 -2.1178,-0.414 -2.2019,-0.4284 -0.084,-0.0142 -0.084,-0.1137 -0.084,-0.1137 L 65.8388,13.072 c 0,0 -0.0109,-0.072 -0.0709,-0.072 -0.0601,0 -0.1232,0 -0.1743,0 -0.0522,0 -0.0736,0.0648 -0.0736,0.0648 l -2.8005,9.6957 c 0,0 -0.0261,0.0981 -0.1138,0.0968 -0.0882,-0.002 -0.7108,-0.0188 -1.0667,-0.0201 -0.3523,0.001 -0.7051,0.0083 -1.0585,0.02 -0.0955,0.0023 -0.121,-0.0967 -0.121,-0.0967 L 57.5397,13.06 c 0,0 -0.0089,-0.06 -0.0762,-0.06 -0.0146,0 -0.1206,0 -0.142,0 -0.0757,0 -0.0814,0.0694 -0.0814,0.0694 l -1.6925,10.153 c 0,0 -0.0157,0.1076 -0.1023,0.1169 -0.7364,0.1205 -1.465,0.2617 -2.1852,0.4258 -0.0871,0.0269 -0.1388,-0.0684 -0.1388,-0.0684 l -4.7012,-9.9439 c 0,0 -0.0272,-0.0485 -0.0814,-0.0485 -0.0548,0 -0.3915,0 -0.4296,0 -0.0386,0 -0.0428,0.0542 -0.0428,0.0542 l 1.2395,15.8323 c 0,0 0,0.1423 0.1123,0.0876 z" />
      <g
         id="g8"
         style="fill:#ffffff">
        <path
           style="fill:#ffffff"
           inkscape:connector-curvature="0"
           id="path10"
           d="m 71.4012,36.6945 c 0.0642,0.0359 0.0798,-0.0121 0.0798,-0.0279 6e-4,-0.1035 6e-4,-0.1605 6e-4,-0.1677 0,-0.2741 -0.0011,-0.4978 -0.0089,-0.7486 0,-0.0147 0,-0.0758 -0.0402,-0.1065 -0.0918,-0.069 -0.1811,-0.14 -0.2761,-0.2035 -1.0626,-0.7085 -2.3443,-1.0376 -3.648,-0.9506 -2.1507,0.1429 -2.7311,1.4548 -2.8866,2.2455 -0.0042,0.023 -0.0094,0.0465 -0.0131,0.0682 -0.0542,0.3137 0.1242,0.2633 0.2187,0.1388 0.3726,-0.4935 0.8648,-0.8939 1.4837,-1.1444 -0.1983,0.3151 -0.2875,0.6875 -0.2254,1.0677 0.1446,0.8903 1.061,1.4828 2.0469,1.3217 0.9848,-0.1608 1.6664,-1.014 1.5218,-1.9048 -0.0266,-0.1605 -0.0788,-0.3099 -0.1498,-0.4478 0.6853,0.2294 1.3079,0.5354 1.7285,0.7651 0.0068,0.0036 0.0893,0.0504 0.1681,0.0948 z" />
        <path
           style="fill:#ffffff"
           inkscape:connector-curvature="0"
           id="path12"
           d="m 67.4238,32.7107 c 1.6043,-0.0852 2.93,0.5681 3.6522,1.0282 0.1248,0.0788 0.2083,0.1328 0.2934,0.1984 0.0521,0.0397 0.1043,-0.0067 0.1002,-0.0409 -0.0449,-0.3348 -0.1002,-0.6393 -0.153,-0.9181 -0.0109,-0.0573 -0.0349,-0.1053 -0.0835,-0.1424 -0.0694,-0.0515 -0.1403,-0.101 -0.2124,-0.1491 -1.0411,-0.6984 -2.3605,-1.0748 -3.6344,-1.0077 -3.2932,0.1736 -4.4445,2.5395 -4.3239,4.8431 0.072,1.377 0.5114,2.1507 0.6612,2.1431 0.0418,-0.0025 0.0611,-0.1364 0.0433,-0.4616 -0.1179,-2.2434 0.381,-5.3208 3.6569,-5.493 z" />
        <path
           style="fill:#ffffff"
           inkscape:connector-curvature="0"
           id="path14"
           d="m 58.25,36.9422 c 0.0939,0.1245 0.2729,0.1749 0.2181,-0.1388 -0.0031,-0.0217 -0.0089,-0.0452 -0.013,-0.0682 -0.1556,-0.7907 -0.7354,-2.1026 -2.8872,-2.2455 -1.3026,-0.087 -2.5844,0.2421 -3.6475,0.9506 -0.0944,0.0635 -0.1842,0.1345 -0.2755,0.2035 -0.0407,0.0307 -0.0397,0.0918 -0.0407,0.1065 -0.0068,0.2508 -0.0079,0.4745 -0.0079,0.7486 0,0.0072 0,0.0642 0,0.1677 0,0.0158 0.0157,0.0638 0.0799,0.0279 0.0783,-0.0444 0.1607,-0.0912 0.1675,-0.0948 0.4207,-0.2297 1.0438,-0.5357 1.7285,-0.7651 -0.0715,0.1379 -0.1231,0.2873 -0.1487,0.4478 -0.1456,0.8908 0.5365,1.744 1.5203,1.9048 0.9863,0.1611 1.9023,-0.4314 2.0468,-1.3217 0.0621,-0.3802 -0.0266,-0.7526 -0.2244,-1.0677 0.6195,0.2505 1.1111,0.6509 1.4838,1.1444 z" />
        <path
           style="fill:#ffffff"
           inkscape:connector-curvature="0"
           id="path16"
           d="m 59.3543,38.6653 c 0.1487,0.0076 0.5882,-0.7661 0.6602,-2.1431 0.1211,-2.3036 -1.0313,-4.6695 -4.3234,-4.8431 -1.2739,-0.0671 -2.5933,0.3093 -3.6355,1.0077 -0.0715,0.0481 -0.1414,0.0976 -0.2109,0.1491 -0.049,0.0371 -0.0735,0.0851 -0.0845,0.1424 -0.0527,0.2788 -0.108,0.5833 -0.1529,0.9181 -0.0037,0.0342 0.0485,0.0806 0.1007,0.0409 0.0846,-0.0656 0.1686,-0.1196 0.2928,-0.1984 0.7239,-0.4601 2.0479,-1.1134 3.6527,-1.0282 3.276,0.1722 3.7739,3.2496 3.657,5.493 -0.0183,0.3252 5e-4,0.4591 0.0438,0.4616 z" />
      </g>
      <path
         style="fill:#ffffff"
         inkscape:connector-curvature="0"
         id="path18"
         d="M 62.2712,73.476 C 48.7348,72.7639 40.0567,68.3459 29.505,68.3459 c -10.7698,0 -13.515,4.1552 -13.515,7.0886 0,2.7504 2.6549,5.1951 4.4539,5.2549 l 0.2531,0 c 0,0 0.1107,-0.0703 0.1248,-0.1052 1.6439,-3.9783 5.6108,-5.1497 10.3001,-5.1497 6.6181,0 17.2496,2.8319 22.3152,2.8319 5.5879,0 8.4995,-3.6516 9.0251,-4.3016 0.3611,-0.4464 -0.1169,-0.485 -0.191,-0.4888 z" />
      <path
         style="fill:#ffffff"
         inkscape:connector-curvature="0"
         id="path20"
         d="m 78.8815,63.8945 c -3.6428,2.266 -7.676,3.2459 -11.9415,3.4599 -7.7783,0.3903 -17.1025,-2.0455 -25.6542,-3.7529 l -4.7712,-12.513 4.9998,-1.7973 c 0.7531,-0.2716 1.4477,-1.0293 1.1862,-2.1504 -1.0996,-3.7264 -3.4309,-13.0126 -1.4305,-19.0697 0.0653,-0.1979 0.2547,-0.863 -0.0553,-1.1095 -0.1258,-0.0998 -0.2933,-0.1028 -0.4483,-0.0082 -0.1065,0.0659 -0.4327,0.2656 -1.0897,1.8599 -1.2239,2.9709 -2.3329,8.5907 -0.6613,18.4944 0.0616,0.338 0.0783,0.6041 -0.5005,0.843 -0.5391,0.2215 -1.9686,0.7276 -2.7415,0.9953 L 28.908,31.1372 c 0.6404,0.4564 1.2979,0.9231 1.4566,1.0236 0.5443,0.3441 0.6607,0.3626 0.8476,0.2953 0.1873,-0.0672 0.3715,-0.2621 0.0589,-0.6894 L 26.429,25.9484 C 26.334,25.8196 26.0992,25.5048 25.8429,25.609 l 0,-2e-4 -0.0016,5e-4 c 0,0 0,4e-4 -0.0021,7e-4 l -5e-4,10e-5 -0.0021,8e-4 0,4e-4 c -0.2635,0.0822 -0.2442,0.4753 -0.2359,0.6354 l -0.0375,7.5742 c 0.0302,0.529 0.2959,0.5619 0.4832,0.4944 0.1869,-0.0675 0.2646,-0.1561 0.4666,-0.7686 0.0579,-0.1784 0.2693,-0.9583 0.4734,-1.7184 l 6.1463,18.2684 c -0.7661,0.2857 -2.1898,0.8064 -2.7462,0.9791 -0.5986,0.1848 -0.7536,-0.0313 -0.9222,-0.3305 -5.0029,-8.7048 -9.429,-12.333 -12.2614,-13.8438 -1.5197,-0.811 -1.8976,-0.7577 -2.0218,-0.74 -0.18,0.0256 -0.3069,0.1344 -0.3403,0.2917 -0.0835,0.3884 0.4859,0.7802 0.6618,0.8912 5.3912,3.3975 9.4938,12.0462 11.0141,15.6205 0.5099,1.0324 1.527,1.1744 2.2806,0.9025 l 4.9988,-1.8007 3.6397,10.8182 c -3.5468,-0.6015 -6.887,-0.9714 -9.8352,-0.8232 -5.3384,0.2681 -9.6988,2.5574 -12.2342,7.4158 -0.0966,0.188 0.0746,0.3417 0.2573,0.2285 3.6428,-2.2657 7.676,-3.2457 11.942,-3.4601 12.8261,-0.6437 27.3974,5.8923 39.3394,5.293 5.3384,-0.2685 9.6983,-2.5574 12.2337,-7.416 0.0976,-0.1876 -0.0746,-0.3415 -0.2573,-0.2284 z" />
      <path
         style="fill:#ffffff"
         inkscape:connector-curvature="0"
         id="path22"
         d="m 70.0657,55.7753 c 1.1481,0.7047 2.1533,1.031 3.0181,1.1559 2.0009,0.2902 3.9105,-0.4566 4.5927,-3.1495 0.0109,-0.0417 -0.0063,-0.0703 -0.047,-0.0851 -0.5652,-0.2033 -4.6778,-1.9604 -3.1512,-9.643 5e-4,-0.0372 0.0459,-0.0943 0.0626,-0.1088 1.6252,-1.4352 2.7567,-2.4 3.016,-2.619 0.0387,-0.0315 -0.0036,-0.0555 -0.0323,-0.0618 -0.8408,-0.1785 -0.7432,-1.445 -0.7432,-1.445 l 0.0658,-4.338 c 0,0 0.2353,-4.6779 -5.0989,-5.1172 -0.0851,-0.0072 -0.1827,0.0234 -0.0914,0.125 0.3946,0.4401 1.323,2.0132 1.323,6.2649 0,1.7948 -0.501,2.7384 -0.501,2.7384 l -1.0516,2.7911 c 0,0 -0.7009,2.1727 -0.6362,3.9674 0.0444,1.1976 0.0297,1.582 0.0146,1.7049 -0.0068,0.0612 -0.0376,0.0579 -0.0835,0.0559 -0.5866,-0.0244 -4.7299,-0.3397 -5.9752,-4.5916 -0.0062,-0.0195 -0.0417,-0.0571 -0.0798,-0.0571 -0.0992,0 -0.2735,0 -0.3544,0 -0.0224,0 -0.0501,0.0169 -0.0449,0.0464 0.0334,0.2066 0.1712,1.0457 0.1775,1.0987 0.0068,0.0605 -0.0032,0.0928 -0.0345,0.1145 -0.2254,0.1553 -1.2499,0.793 -2.8573,0.8047 -0.0058,0 -0.0105,4e-4 -0.0152,4e-4 -0.0041,0 -0.0099,-4e-4 -0.0146,-4e-4 -1.6085,-0.0117 -2.6314,-0.6494 -2.8584,-0.8047 -0.0313,-0.0217 -0.0407,-0.054 -0.0339,-0.1145 0.0068,-0.053 0.1445,-0.8921 0.1785,-1.0987 0.0041,-0.0295 -0.023,-0.0464 -0.0465,-0.0464 -0.0798,0 -0.2541,0 -0.3533,0 -0.0386,0 -0.0746,0.0376 -0.0799,0.0571 -1.2457,4.2519 -5.3896,4.5672 -5.9757,4.5916 -0.0454,0.002 -0.0767,0.0053 -0.0835,-0.0559 -0.0146,-0.1229 -0.0297,-0.5073 0.0146,-1.7049 0.0642,-1.7947 -0.6351,-3.9674 -0.6351,-3.9674 l -1.0532,-2.7911 c 0,0 -0.4999,-0.9436 -0.4999,-2.7384 0,-4.2517 0.9284,-5.8248 1.323,-6.2649 0.0908,-0.1016 -0.0068,-0.1322 -0.0919,-0.125 -5.3348,0.4393 -5.0984,5.1172 -5.0984,5.1172 l 0.0647,4.338 c 0,0 0.0987,1.2665 -0.7421,1.445 -0.0292,0.0063 -0.071,0.0303 -0.0329,0.0618 0.2599,0.219 1.3909,1.1838 3.0166,2.619 0.0156,0.0145 0.0605,0.0716 0.0631,0.1088 1.526,7.6826 -2.5865,9.4397 -3.1522,9.643 -0.0407,0.0148 -0.0574,0.0434 -0.0475,0.0851 0.6831,2.6929 2.5922,3.4397 4.5937,3.1495 0.8648,-0.1249 1.8699,-0.4512 3.0181,-1.1559 0.0371,-0.0259 0.1174,-0.0259 0.0569,0.1042 -0.1117,0.3161 -0.9071,2.1763 -4.0948,2.1763 -1.3689,-0.0512 -1.7624,-0.2386 -1.9211,-0.3263 -0.0198,-0.0109 -0.0647,0.0179 -0.0454,0.0628 0.3721,0.8598 1.5479,3.4956 4.1485,3.4956 4.397,0 6.2868,-3.8757 6.5295,-4.4023 0.0255,-0.0657 0.1111,-0.0815 0.132,0.0247 -0.0162,3.889 -3.8521,5.4289 -6.1724,5.4289 -0.0548,0 -0.0527,0.0584 -0.0016,0.0963 1.1262,0.8482 3.6475,2.306 6.066,2.1265 2.1074,-0.1565 3.4815,-1.787 3.7639,-2.7358 0.0219,-0.0742 0.1085,-0.0704 0.1315,0.0058 0.2871,0.9498 1.6602,2.5737 3.7624,2.73 2.4189,0.1795 4.9407,-1.2783 6.0665,-2.1265 0.0511,-0.0379 0.0527,-0.0963 -0.0021,-0.0963 -2.3204,0 -6.1568,-1.5399 -6.172,-5.4289 0.0214,-0.1062 0.1065,-0.0904 0.1331,-0.0247 0.2411,0.5266 2.1314,4.4023 6.5284,4.4023 2.6001,0 3.777,-2.6358 4.1491,-3.4956 0.0193,-0.0449 -0.0272,-0.0737 -0.046,-0.0628 -0.1576,0.0877 -0.5526,0.2751 -1.9221,0.3263 -3.1867,0 -3.9815,-1.8602 -4.0937,-2.1763 -0.0601,-0.1301 0.0193,-0.1301 0.0574,-0.1042 z m -4.4956,-4.8184 c -0.0533,-0.0089 -0.1002,0.0069 -0.1258,0.0552 -0.3304,0.5742 -0.7682,1.2632 -1.6711,1.2632 l -2.2238,0 -0.0219,0 -2.2243,0 c -0.9019,0 -1.3408,-0.689 -1.6706,-1.2632 -0.024,-0.0483 -0.0721,-0.0641 -0.1258,-0.0552 -1.3851,0.2654 -3.1168,0.3647 -5.2304,0.1768 -0.5407,-0.0479 -0.8747,-0.6013 -0.1837,-0.5477 3.3114,0.2559 7.1478,-0.5446 8.9724,-3.2483 0.0887,-0.1301 0.2797,-0.3397 0.4733,-0.3486 0.1942,0.0089 0.3857,0.2185 0.4734,0.3486 1.8245,2.7037 5.6615,3.5042 8.9729,3.2483 0.691,-0.0536 0.357,0.4998 -0.1847,0.5477 -2.1127,0.1879 -3.8443,0.0886 -5.2299,-0.1768 z" />
      <path
         style="fill:#ffffff"
         inkscape:connector-curvature="0"
         id="path24"
         d="m 63.5754,50.3519 c -0.369,-0.2765 -0.6451,-0.5534 -0.9827,-0.5534 l -2.1085,0 c -0.3377,0 -0.6143,0.2769 -0.9817,0.5534 -0.3079,0.2153 -0.3695,0.3074 -0.3695,0.3691 0,0.154 0.1853,0.154 0.1853,0.154 l 4.4413,0 c 0,0 0.1842,0 0.1842,-0.154 0,-0.0617 -0.0615,-0.1538 -0.3684,-0.3691 z" />
    </g>
  </g>
</svg>
