<?xml version="1.0" standalone="no"?>
<!-- Generator: Adobe Fireworks 10, Export SVG Extension by Aaron Beall (http://fireworks.abeall.com) . Version: 0.6.1  -->
<!DOCTYPE svg PUBLIC "-//W3C//DTD SVG 1.1//EN" "http://www.w3.org/Graphics/SVG/1.1/DTD/svg11.dtd">
<svg id="jurel-white-icon-Page%201" viewBox="0 0 52 20" style="background-color:#ffffff00" version="1.1"
	xmlns="http://www.w3.org/2000/svg" xmlns:xlink="http://www.w3.org/1999/xlink" xml:space="preserve"
	x="0px" y="0px" width="52px" height="20px"
>
	<g id="Layer%201">
		<path d="M 26.0715 1.1208 C 26.1254 1.0454 26.207 0.954 26.3177 1.0264 C 27.0298 1.2372 27.5903 1.7501 28.1604 2.2003 C 28.5101 2.4678 28.838 2.7605 29.147 3.0721 C 29.8619 3.7234 30.5266 4.4222 31.2417 5.0734 C 31.3458 5.1521 31.4435 5.2623 31.5791 5.2937 C 32.1396 5.4196 32.7227 5.4196 33.2961 5.4385 C 35.8198 5.4196 38.3431 5.6653 40.8225 6.1403 C 41.3647 6.2003 41.8809 6.4046 42.426 6.4708 C 43.4156 6.7289 44.4082 6.9713 45.3818 7.2796 C 45.9768 7.4936 46.6036 7.6069 47.1995 7.8176 C 47.7128 7.9814 48.2141 8.186 48.7083 8.3968 C 49.1587 8.6327 49.6346 8.828 50.0566 9.1237 C 50.4094 9.3661 50.8191 9.6431 50.9202 10.09 C 51.0114 10.307 50.816 10.4643 50.6805 10.5967 C 50.4254 10.7789 50.1165 10.8575 49.8364 10.9839 C 49.8394 11.0058 49.8459 11.0466 49.8524 11.0685 C 50.1768 11.1188 50.4851 10.9929 50.8101 10.9839 C 51.0114 11.0626 51.0681 11.3642 50.9048 11.5125 C 50.6995 11.849 50.3372 12.0411 49.9968 12.2143 C 49.5903 12.4373 49.1368 12.5508 48.6993 12.7021 C 46.0679 13.5114 43.4525 13.806 40.9551 14.5715 C 40.7722 14.6124 40.6812 14.7791 40.5551 14.8951 C 40.3851 15.0593 40.2686 15.2669 40.1484 15.4684 C 39.7388 16.0378 39.2979 16.5823 38.8314 17.1079 C 38.6361 17.2747 38.4128 17.5325 38.1259 17.4225 C 37.9116 17.3628 37.817 17.1393 37.795 16.9377 C 37.7761 16.3778 37.7512 15.8144 37.8015 15.2544 C 37.1523 15.352 36.5066 15.4874 35.8478 15.5152 C 35.3784 15.5436 34.9189 15.6411 34.4497 15.6914 C 33.8567 15.7576 33.2677 15.8806 32.6658 15.8865 C 31.5068 15.8806 30.3438 16 29.1877 15.8616 C 29.0967 16.1478 28.9014 16.3778 28.7244 16.6137 C 28.4883 16.881 28.3527 17.2463 28.0378 17.435 C 27.8206 17.542 27.6566 17.325 27.5844 17.1517 C 27.5276 17.086 27.4802 16.8969 27.3541 16.9407 C 26.538 17.5101 26.0676 18.3373 25.0701 18.9396 C 24.9377 19.0272 24.7487 19.0212 24.6323 18.9107 C 24.374 18.6061 24.3896 18.184 24.4811 17.8157 C 24.6208 16.7705 24.5618 16.2877 25.1017 15.4087 C 24.7708 15.339 24.4337 15.3301 24.0996 15.2858 C 23.1893 15.1001 22.2662 15.0026 21.34 14.9299 C 20.5681 14.8607 19.7866 14.7567 19.0117 14.8672 C 18.7786 14.8861 18.5895 15.0245 18.3879 15.119 C 18.0129 15.2923 17.6602 15.4993 17.3167 15.7263 C 17.0393 15.9119 16.7274 16.0349 16.4438 16.2081 C 15.9304 16.5067 15.3979 16.768 14.8623 17.0164 C 14.3427 17.1955 13.8606 17.4728 13.3501 17.6803 C 13.1357 17.7654 12.8682 17.7689 12.6726 17.6395 C 12.4113 17.3941 12.3356 17.0323 12.219 16.7078 C 12.0837 16.2767 11.8789 15.8676 11.8096 15.4177 C 11.759 14.9269 11.759 14.4327 11.8221 13.9419 C 11.8411 13.819 11.8032 13.6995 11.7561 13.5895 C 11.8411 13.4949 11.8945 13.3312 12.0615 13.369 C 12.4332 13.3501 12.8114 13.2964 13.1266 13.0858 C 12.8271 12.9474 12.4963 12.9131 12.1781 12.8434 C 11.759 12.7523 11.3337 12.711 10.9084 12.6673 C 10.2974 12.6075 9.686 12.6832 9.0813 12.7618 C 8.7756 12.8121 8.5016 12.9693 8.1991 13.0415 C 7.6635 13.1739 7.1563 13.4039 6.6144 13.5293 C 6.0598 13.6587 5.5463 13.9165 5.0012 14.0868 C 4.5696 14.2157 4.1379 14.3794 3.6875 14.4202 C 3.0731 14.4929 2.4587 14.5651 1.8444 14.6372 C 1.5608 14.6437 1.2805 14.6283 1 14.6094 C 1.0852 14.3983 1.1858 14.1903 1.1829 13.9573 C 1.5188 12.7469 1.8633 11.735 2.2225 10.5648 C 2.2539 10.3384 2.1625 10.1244 2.1406 9.9041 C 1.4921 8.3908 1.6044 7.2351 1.5892 5.5328 C 1.6301 5.3221 1.9263 5.3126 2.0964 5.3283 C 3.0574 5.4385 4.0088 5.7028 4.8783 6.1309 C 5.4297 6.3733 5.9843 6.6154 6.4883 6.9459 C 7.1719 7.3172 7.7611 7.8806 8.5234 8.0979 C 9.1473 8.2614 9.7869 8.3968 10.4359 8.4095 C 11.1101 8.4062 11.7908 8.4157 12.4553 8.293 C 12.0962 8.1638 11.6992 8.126 11.3655 7.9309 C 11.1982 7.8366 11.2739 7.5847 11.3906 7.4777 C 11.6267 7.185 12.0364 7.1883 12.3767 7.1631 C 12.6791 7.1442 12.9689 7.2607 13.2589 7.3331 C 13.8037 7.4872 14.3362 7.7706 14.9192 7.6982 C 15.417 7.6193 15.9242 7.6193 16.4249 7.5377 C 16.9354 7.4558 17.449 7.4085 17.9562 7.2985 C 18.3059 7.2985 18.6558 7.2575 18.9958 7.1788 C 19.5376 7.0875 20.089 7.0467 20.6216 6.9145 C 21.34 6.7635 22.074 6.7289 22.7954 6.5903 C 23.2334 6.496 23.687 6.4519 24.1187 6.3227 C 23.7341 6.2065 23.3311 6.156 22.9434 6.0522 C 22.6693 5.9514 22.3857 5.8855 22.115 5.7785 C 22.1085 5.6274 22.1748 5.4858 22.2502 5.3599 C 22.4204 5.1586 22.6726 5.0483 22.8552 4.8627 C 23.8552 3.7577 26.0051 1.4495 26.072 1.1208 L 26.0715 1.1208 Z" stroke="#ffffff" stroke-width="2" fill="none"/>
	</g>
</svg>