<?xml version="1.0" standalone="no"?>
<!-- Generator: Adobe Fireworks 10, Export SVG Extension by Aaron Beall (http://fireworks.abeall.com) . Version: 0.6.1  -->
<!DOCTYPE svg PUBLIC "-//W3C//DTD SVG 1.1//EN" "http://www.w3.org/Graphics/SVG/1.1/DTD/svg11.dtd">
<svg id="langostinos-white-icon-Page%201" viewBox="0 0 30 25" style="background-color:#ffffff00" version="1.1"
	xmlns="http://www.w3.org/2000/svg" xmlns:xlink="http://www.w3.org/1999/xlink" xml:space="preserve"
	x="0px" y="0px" width="30px" height="25px"
>
	<g id="Layer%201">
		<path d="M 3.9641 3.0709 C 4.7769 2.4319 5.5642 1.7593 6.4077 1.1641 C 8.7871 -0.5127 10.7799 -0.3849 12.8477 1.592 C 13.8721 2.5737 14.5739 3.7549 14.9087 5.1582 C 15.2899 6.7653 14.9602 8.0926 13.6462 9.1707 C 12.1909 10.3617 10.8906 11.7055 11.6526 13.775 C 12.4652 15.9778 13.9453 17.6125 16.449 17.8778 C 18.64 18.1097 20.8053 17.9662 22.7662 16.7535 C 23.5123 16.2928 24.2996 15.8827 25.105 15.5264 C 27.2513 14.5715 28.8303 15.2441 29.6296 17.3717 C 29.7773 17.7657 29.7944 18.1016 29.4509 18.3322 C 27.8833 19.3826 29.5464 19.5236 29.8821 20.4 C 30.2168 21.2755 29.7893 21.3969 29.2235 21.4521 C 27.2375 21.6508 25.3076 21.1778 23.3535 20.9868 C 22.7354 20.9256 22.1523 20.856 21.6097 21.3459 C 18.1636 24.4583 14.1545 25.6284 9.5535 24.679 C 7.8706 23.6473 6.1875 22.6172 4.5046 21.5854 C 0.6733 17.8897 -1.0588 13.5992 0.6716 8.3287 C 1.7693 6.576 2.8669 4.8236 3.9641 3.0709 ZM 2.7227 6.314 C 2.7305 6.3187 2.7378 6.3238 2.7468 6.3288 C 2.5283 6.6787 2.2921 7.0192 2.0925 7.3806 C 0.4802 10.2907 0.6943 11.0257 3.6031 12.5704 C 4.4797 13.0362 5.4117 13.3665 6.3835 13.5631 C 9.0559 14.1036 9.8733 13.5669 10.5459 11.0066 C 10.7537 10.2148 10.6416 9.816 9.8003 9.4929 C 7.865 8.7482 6.2861 7.4897 5.1511 5.7544 C 4.1028 4.1511 4.1294 4.1349 3.0529 5.787 C 2.9391 5.9628 2.8322 6.1386 2.7227 6.314 ZM 9.2838 8.1155 C 10.0081 8.3312 10.8669 9.4734 12.0106 8.7359 C 13.1113 8.0255 13.9978 7.0141 13.833 5.5501 C 13.6041 3.5057 12.5365 1.9899 10.6477 1.1216 C 8.9683 0.3488 7.6611 1.2906 6.3574 2.1716 C 5.3452 2.8565 5.2451 3.684 5.8235 4.6967 C 6.6099 6.0681 7.6589 7.1747 9.2838 8.1155 ZM 10.7117 16.2321 C 11.1453 15.7234 10.9095 15.2076 10.6567 14.6811 C 10.4712 14.2947 10.1995 14.1452 9.7797 14.2696 C 6.8516 15.1392 4.2493 14.3095 1.7908 12.7577 C 1.0438 12.2863 0.7463 12.5156 0.8132 13.3474 C 0.9833 15.4708 1.8409 17.3059 3.2061 18.93 C 3.4126 19.1746 3.6543 19.3304 3.9849 19.3903 C 5.598 19.6756 9.8153 17.7195 10.7117 16.2321 ZM 4.5059 20.3142 C 6.0076 21.8546 7.5349 22.7853 9.2834 23.3781 C 9.7959 23.5513 10.3301 23.6804 10.7231 23.1955 C 11.8883 21.7578 12.6305 20.1333 12.7927 18.2804 C 12.8507 17.6223 12.4137 17.2125 11.9158 16.9331 C 11.3658 16.6253 11.0696 17.1599 10.746 17.4541 C 9.0576 18.9886 7.1499 20.0756 4.5059 20.3142 ZM 16.3579 19.2395 C 14.7129 18.2477 13.833 18.5763 13.3732 20.2157 C 13.2625 20.6106 13.0513 20.985 12.9863 21.3859 C 12.8391 22.2911 11.4861 23.2235 12.075 23.7704 C 12.7927 24.4379 14.1382 23.784 15.2092 23.6591 C 15.3638 23.6413 15.5115 23.5793 15.6643 23.5513 C 16.5511 23.3849 17.0182 22.8541 17.0912 21.9701 C 17.1787 20.9196 17.1204 19.9151 16.3579 19.2395 ZM 18.1077 22.528 C 19.1748 22.2079 19.9862 21.5965 20.7504 20.9256 C 21.4733 20.2921 21.3711 19.5894 20.5674 19.2056 C 19.7605 18.8209 18.7714 18.9491 18.0107 19.2913 C 17.3796 19.5745 18.1068 20.2649 18.0681 20.7906 C 18.027 21.3409 18.0889 21.8979 18.1077 22.528 Z" fill="#ffffff"/>
	</g>
</svg>