<?xml version="1.0" standalone="no"?>
<!-- Generator: Adobe Fireworks 10, Export SVG Extension by Aaron Beall (http://fireworks.abeall.com) . Version: 0.6.1  -->
<!DOCTYPE svg PUBLIC "-//W3C//DTD SVG 1.1//EN" "http://www.w3.org/Graphics/SVG/1.1/DTD/svg11.dtd">
<svg id="harina-white-Page%201" viewBox="0 0 40 28" style="background-color:#ffffff00" version="1.1"
	xmlns="http://www.w3.org/2000/svg" xmlns:xlink="http://www.w3.org/1999/xlink" xml:space="preserve"
	x="0px" y="0px" width="40px" height="28px"
>
	<g id="Layer%201">
		<path d="M 38.0028 24.6458 C 37.1558 24.354 36.4904 24.2068 36.006 24.2068 C 35.5216 24.2068 34.8555 24.354 34.0082 24.6458 C 33.1615 24.9391 32.4965 25.0863 32.0126 25.0863 C 31.6112 25.0863 31.0748 24.9798 30.4166 24.7788 C 30.2809 24.7366 30.1471 24.6959 30.0002 24.6458 C 29.3302 24.4145 28.7793 24.2783 28.3374 24.2303 C 28.2233 24.2162 28.1138 24.2063 28.0172 24.2063 C 28.0149 24.2063 28.0126 24.2073 28.0094 24.2073 C 28.0077 24.2073 28.0045 24.2063 28.0031 24.2063 C 27.594 24.2063 27.0468 24.3169 26.3783 24.5267 C 26.2539 24.5643 26.1332 24.5998 25.9994 24.6458 C 25.1442 24.9365 24.4781 25.0826 23.9956 25.0853 C 23.787 25.0832 23.5372 25.0519 23.2596 24.9971 C 22.9028 24.9245 22.4891 24.8107 22.0046 24.6447 C 21.5812 24.5017 21.2191 24.4056 20.8889 24.3336 C 20.7898 23.6895 20.64 22.8977 20.4185 21.9602 C 20.8464 22.0181 21.3734 22.1517 22.0046 22.3647 C 22.8649 22.6581 23.5233 22.8053 23.9808 22.8053 C 24.4652 22.8053 25.1373 22.6581 25.9991 22.3647 C 26.859 22.074 27.5321 21.9273 28.0165 21.9273 C 28.4727 21.9273 29.1311 22.074 29.9934 22.3647 C 30.853 22.6581 31.5265 22.8053 32.0118 22.8053 L 32.4152 22.8053 C 32.4413 22.8053 32.4808 22.8063 32.5355 22.8053 C 32.743 22.7985 32.9558 22.7458 33.1406 22.6836 C 33.8152 22.4586 35.4071 21.4293 36.5922 19.9772 C 38.829 17.2373 39.787 14.3899 39.787 14.3899 L 30.3064 15.8452 L 30.3064 11.1213 L 25.1434 11.1213 L 25.1434 3.2138 L 23.3245 3.2138 L 23.3245 16.2414 L 12.152 0 L 10.7494 0.9453 L 14.1256 5.8535 L 9.8527 5.8535 L 9.8527 7.5332 L 11.6219 7.5332 L 11.6167 7.5645 C 11.6075 7.6172 10.6998 12.9315 9.0133 16.7842 C 7.4856 20.2732 5.2906 22.7875 3.8124 24.2188 C 3.3451 24.248 2.7383 24.3858 1.9767 24.6447 C 1.1162 24.9381 0.4559 25.0858 0 25.0858 L 0 28 C 0.4564 28 1.1162 27.8544 1.9767 27.5605 C 2.8365 27.2677 3.5104 27.122 3.9945 27.122 C 4.4789 27.122 5.1437 27.2677 5.9918 27.5605 C 6.8396 27.8544 7.5043 28 7.9888 28 C 7.9933 28 7.9979 27.9984 8.0033 27.9984 L 8.0033 28 C 8.0963 28 8.2052 27.9906 8.3165 27.9775 C 8.7601 27.9295 9.3138 27.7938 9.9866 27.56 C 10.1661 27.4984 10.3325 27.4462 10.495 27.3971 C 11.1075 27.2165 11.6091 27.1231 11.9901 27.1215 C 12.392 27.1231 12.9288 27.2285 13.5879 27.43 C 13.7211 27.4712 13.8513 27.5104 13.995 27.56 C 14.6603 27.7907 15.2084 27.9264 15.6495 27.9765 C 15.7662 27.9895 15.8789 28 15.9773 28 C 15.9796 28 15.9821 28 15.985 28 C 15.9867 28 15.9891 28 15.9912 28 C 16.3998 28 16.9451 27.8904 17.6106 27.6811 C 17.7369 27.643 17.8604 27.6064 17.9962 27.56 C 18.8488 27.2697 19.517 27.1236 20 27.1215 C 20.2004 27.1231 20.4401 27.1534 20.7057 27.204 C 21.0682 27.276 21.4915 27.3909 21.9899 27.56 C 22.4742 27.7254 22.8936 27.8392 23.259 27.9113 C 23.5352 27.9666 23.7817 28 23.9808 28 C 23.9847 28 23.9901 28 23.9952 27.9984 C 23.9984 28 24.004 28 24.0084 28 C 24.4929 28 25.1569 27.8544 26.0042 27.5605 C 26.1355 27.5146 26.2552 27.4791 26.3778 27.4404 C 27.0524 27.2332 27.6008 27.1231 28.0085 27.1215 C 28.1095 27.1215 28.2201 27.1314 28.3361 27.144 C 28.7631 27.193 29.3118 27.3287 29.9934 27.5605 C 30.1427 27.6106 30.278 27.6519 30.4159 27.6936 C 31.0643 27.894 31.5964 28 31.9969 28 L 31.9969 27.9984 C 32.0017 27.9984 32.0065 28 32.0118 28 C 32.4957 28 33.1608 27.8544 34.0074 27.5605 C 34.8547 27.2677 35.5209 27.122 36.0052 27.122 C 36.4899 27.122 37.1549 27.2677 38.002 27.5605 C 38.8492 27.8544 39.5161 28 40 28 L 40 25.0858 C 39.517 25.0863 38.85 24.9391 38.0028 24.6458 ZM 25.6727 13.3105 L 28.2828 13.3105 L 28.2828 15.8927 L 25.6727 15.8927 L 25.6727 13.3105 ZM 12.7517 10.1546 C 13.3253 11.4804 14.0138 13.2645 14.5327 15.2267 C 14.0154 15.1958 13.4457 15.1927 12.834 15.2251 C 12.8872 13.3924 12.8285 11.565 12.7517 10.1546 ZM 12.796 16.1772 C 13.5265 16.1344 14.1859 16.149 14.7725 16.1991 C 14.9172 16.839 15.0402 17.4915 15.1307 18.1455 C 15.1488 18.2755 15.1609 18.3977 15.1766 18.524 C 14.4857 18.3288 13.6949 18.1878 12.6265 18.1748 C 12.7042 17.5317 12.7596 16.861 12.796 16.1772 ZM 11.8361 11.1526 C 11.8881 12.42 11.9155 13.9029 11.8694 15.3676 C 11.4137 15.4778 10.8923 15.6349 10.4496 15.7773 C 11.0311 14.2046 11.4935 12.5515 11.8361 11.1526 ZM 9.8929 17.1627 C 9.9261 17.0875 9.957 17.0092 9.9894 16.933 C 10.442 16.7754 11.1925 16.5285 11.8253 16.3588 C 11.7887 16.9915 11.7351 17.6095 11.6613 18.1957 C 11.5303 18.2019 11.4103 18.204 11.271 18.215 C 10.6091 18.2635 9.8025 18.4739 9.1581 18.6733 C 9.413 18.1894 9.6617 17.6914 9.8929 17.1627 ZM 10.1387 24.5957 C 10.0846 24.6129 10.0353 24.627 9.9796 24.6458 C 9.297 24.8786 8.7448 25.0164 8.3168 25.0634 C 8.2013 25.0753 8.0887 25.0868 7.9893 25.0868 C 7.5046 25.0868 6.8398 24.9397 5.9923 24.6458 C 5.6376 24.5231 5.323 24.4333 5.0325 24.3613 C 5.4282 23.9547 5.8541 23.4839 6.2948 22.9546 C 6.5775 22.87 8.9977 22.1543 10.1437 22.0322 C 10.4369 22.0009 10.7086 21.9826 10.973 21.969 C 10.6766 23.1978 10.3823 24.0371 10.1387 24.5957 ZM 10.0414 21.088 C 9.3149 21.1657 8.1708 21.4471 7.2821 21.6872 C 7.6792 21.1422 8.0745 20.5519 8.4592 19.9146 C 8.8226 19.7793 10.3275 19.236 11.3433 19.1608 C 11.4069 19.1556 11.4591 19.1551 11.5205 19.1519 C 11.4121 19.8389 11.3003 20.4569 11.1864 21.0092 C 10.828 21.0222 10.4512 21.0452 10.0414 21.088 ZM 15.1534 24.9751 C 14.8204 24.9021 14.4409 24.7961 14.0018 24.6458 C 13.8558 24.5957 13.7235 24.557 13.5881 24.5163 C 12.9349 24.3138 12.3997 24.2068 11.9976 24.2068 C 11.9957 24.2068 11.9933 24.2078 11.9904 24.2078 C 11.988 24.2078 11.9857 24.2068 11.9835 24.2068 C 11.7844 24.2068 11.5519 24.2334 11.2911 24.2845 C 11.5084 23.6864 11.7372 22.9211 11.9625 21.9503 C 13.5565 21.9889 14.5538 22.3449 15.3348 22.6226 C 15.3475 22.6273 15.3589 22.631 15.3712 22.6356 C 15.3359 23.5815 15.2494 24.366 15.1534 24.9751 ZM 12.1652 21.0117 C 12.2789 20.4428 12.3894 19.8123 12.4954 19.1211 C 13.7118 19.1253 14.5264 19.3059 15.2859 19.5492 C 15.3512 20.2966 15.3853 20.9977 15.3887 21.6355 C 14.6102 21.3636 13.6222 21.0666 12.1652 21.0117 ZM 15.5477 15.3263 C 15.1075 13.5694 14.5311 11.946 13.9958 10.6296 C 15.0507 11.9919 16.28 13.7667 17.2578 15.6897 C 16.8069 15.555 16.2344 15.4203 15.5477 15.3263 ZM 15.7784 16.3254 C 16.8285 16.505 17.5258 16.7733 17.8297 16.9085 C 18.0192 17.3464 18.1965 17.787 18.3466 18.2317 C 18.3783 18.3236 18.4047 18.4113 18.4349 18.5036 L 16.1398 18.5036 C 16.1196 18.3413 16.1036 18.1837 16.0804 18.0166 C 16.0016 17.4466 15.8961 16.8818 15.7784 16.3254 ZM 17.9906 24.6458 C 17.8569 24.6922 17.7358 24.7282 17.611 24.7679 C 17.0033 24.9558 16.505 25.0581 16.1134 25.078 C 16.2094 24.462 16.2932 23.6864 16.3301 22.7635 C 16.7969 22.705 17.3896 22.5766 18.0099 22.3652 C 18.576 22.1747 19.0452 22.0505 19.4364 21.9852 C 19.6456 22.8528 19.7933 23.5976 19.8948 24.213 C 19.4196 24.2282 18.7891 24.3691 17.9906 24.6458 ZM 19.4423 18.5031 C 19.3811 18.3131 19.3223 18.1273 19.2561 17.931 C 17.8351 13.7113 14.6202 9.7605 13.1697 8.1168 L 15.6827 8.1168 L 22.8268 18.5031 L 19.4423 18.5031 Z" fill="#ffffff"/>
	</g>
</svg>