<?xml version="1.0" encoding="UTF-8" standalone="no"?>
<!-- Created with Inkscape (http://www.inkscape.org/) -->

<svg
   xmlns:dc="http://purl.org/dc/elements/1.1/"
   xmlns:cc="http://creativecommons.org/ns#"
   xmlns:rdf="http://www.w3.org/1999/02/22-rdf-syntax-ns#"
   xmlns:svg="http://www.w3.org/2000/svg"
   xmlns="http://www.w3.org/2000/svg"
   xmlns:sodipodi="http://sodipodi.sourceforge.net/DTD/sodipodi-0.dtd"
   xmlns:inkscape="http://www.inkscape.org/namespaces/inkscape"
   width="27"
   height="32"
   id="svg2"
   version="1.1"
   inkscape:version="0.48.4 r9939"
   sodipodi:docname="sardinas_white_icon.svg">
  <defs
     id="defs4" />
  <sodipodi:namedview
     id="base"
     pagecolor="#ffffff"
     bordercolor="#666666"
     borderopacity="1.0"
     inkscape:pageopacity="0.0"
     inkscape:pageshadow="2"
     inkscape:zoom="7.9195959"
     inkscape:cx="28.422026"
     inkscape:cy="25.819814"
     inkscape:document-units="px"
     inkscape:current-layer="layer1"
     showgrid="false"
     inkscape:window-width="1366"
     inkscape:window-height="713"
     inkscape:window-x="0"
     inkscape:window-y="30"
     inkscape:window-maximized="1"
     showborder="true"
     borderlayer="false" />
  <metadata
     id="metadata7">
    <rdf:RDF>
      <cc:Work
         rdf:about="">
        <dc:format>image/svg+xml</dc:format>
        <dc:type
           rdf:resource="http://purl.org/dc/dcmitype/StillImage" />
        <dc:title />
      </cc:Work>
    </rdf:RDF>
  </metadata>
  <g
     inkscape:label="Capa 1"
     inkscape:groupmode="layer"
     id="layer1"
     transform="translate(0,-1020.3621)">
    <g
       id="g2990">
      <g
         transform="matrix(0.15924953,0,0,0.15924953,-0.82612914,885.7952)"
         style="fill:#ffffff"
         id="g2985">
        <path
           style="fill:#ffffff;fill-opacity:1;stroke:none"
           d="m 39.696937,852.21564 c -5.762394,8.77727 -11.584409,18.89431 -18.28125,51.5 l -13.6875,17.4375 11.875,-2.875 c -2.27269,15.48903 -1.992545,30.12183 0.96875,46.5625 l -5.625,17.15625 8.40625,-4.5 c 3.308969,9.17407 5.875736,20.55301 10.03125,27.18751 -11.893733,17.1413 -8.94799,29.7351 -7.34375,35.6875 8.811387,-0.8612 13.061761,-6.6022 13.78125,-16.0313 8.283491,14.9997 12.343373,13.7381 16.968753,14.5625 1.99391,-22.899 -5.65485,-25.2159 -10.218753,-34.125 3.103803,-6.4271 5.415053,-16.88479 8.093753,-25.43746 l 11.09375,2.84375 -9.59375,-15.65625 c 3.31158,-18.81519 2.17065,-33.63757 0.8125,-48.25 l 11.40625,1.75 -12.40625,-11.84375 C 53.70272,887.13448 48.144865,869.94192 39.696937,852.21564 z m 1.3125,25.28125 c 3.52169,0 6.375,2.85331 6.375,6.375 0,3.52169 -2.85331,6.375 -6.375,6.375 -3.52169,0 -6.375,-2.85331 -6.375,-6.375 0,-3.52169 2.85331,-6.375 6.375,-6.375 z m 0,3.03125 c -1.84802,0 -3.34375,1.49573 -3.34375,3.34375 0,1.84802 1.49573,3.34375 3.34375,3.34375 1.84802,0 3.34375,-1.49573 3.34375,-3.34375 0,-1.84802 -1.49573,-3.34375 -3.34375,-3.34375 z m -16.65625,15.78125 c 6.322227,3.90507 15.077782,4.79225 24.15625,2 -2.949486,1.83864 -12.184116,7.11355 -24.09375,1.40625 l -0.0625,-3.40625 z m 24.875003,9.09375 c 6.36591,24.37327 5.4077,49.3202 0.375,73.21875 1.26092,-23.35871 1.21895,-47.97165 -0.375,-73.21875 z m -22.125003,2.84375 c -0.97902,23.07261 -1.45522,41.07966 3.375,73.21875 -5.42105,-12.75762 -10.471493,-55.83906 -3.375,-73.21875 z"
           id="path2996"
           inkscape:connector-curvature="0" />
        <path
           style="fill:#ffffff;fill-opacity:1;stroke:none"
           d="m 90.574659,848.70005 c -5.7624,9.17781 -11.58441,19.75654 -18.281251,53.85014 l -13.6875,18.23324 11.875,-3.00619 c -2.27269,16.19586 -1.992545,31.4964 0.96875,48.68733 l -5.625,17.93916 8.40625,-4.70536 c 3.308971,9.59272 5.875731,21.49103 10.031251,28.42813 -11.893734,17.9236 -8.947991,31.0921 -7.34375,37.3161 8.81139,-0.9005 13.06176,-6.9035 13.78125,-16.7628 8.283491,15.6842 12.343371,14.3649 16.968751,15.227 1.99391,-23.944 -5.65485,-26.3666 -10.21875,-35.6822 3.1038,-6.7205 5.41505,-17.65538 8.09375,-26.59834 l 11.09375,2.97352 -9.59375,-16.3707 c 3.31158,-19.6738 2.17065,-35.17259 0.8125,-50.45184 l 11.40625,1.82986 -12.40625,-12.38423 c -2.27547,-22.01049 -7.83332,-39.98762 -16.281251,-58.52282 z m 1.3125,26.43493 c 3.52169,0 6.375001,2.98352 6.375001,6.66592 0,3.6824 -2.853311,6.66592 -6.375001,6.66592 -3.52169,0 -6.375,-2.98352 -6.375,-6.66592 0,-3.6824 2.85331,-6.66592 6.375,-6.66592 z m 0,3.16959 c -1.84802,0 -3.34375,1.56398 -3.34375,3.49633 0,1.93235 1.49573,3.49633 3.34375,3.49633 1.84802,0 3.34375,-1.56398 3.34375,-3.49633 0,-1.93235 -1.49573,-3.49633 -3.34375,-3.49633 z m -16.656251,16.5014 c 6.322231,4.08327 15.077781,5.01094 24.156252,2.09127 -2.94949,1.92254 -12.184121,7.43817 -24.093752,1.47042 l -0.0625,-3.56169 z m 24.875002,9.50873 c 6.36591,25.48552 5.4077,51.57088 0.375,76.56001 1.26092,-24.42466 1.21895,-50.16078 -0.375,-76.56001 z m -22.125001,2.97353 c -0.97902,24.12549 -1.45522,42.95428 3.375,76.56 -5.42105,-13.3398 -10.471494,-58.38722 -3.375,-76.56 z"
           id="path2996-7"
           inkscape:connector-curvature="0" />
        <path
           style="fill:#ffffff;fill-opacity:1;stroke:none"
           d="m 142.43359,855.32696 c -6.00232,8.56523 -12.06672,18.43785 -19.04238,50.25581 l -14.25737,17.01622 12.36941,-2.80553 c -2.36731,15.11483 -2.0755,29.39411 1.00908,45.43759 l -5.85919,16.74177 8.75624,-4.39129 c 3.44673,8.95244 6.12036,20.05647 10.44889,26.53067 -12.38892,16.7272 -9.32053,29.0168 -7.6495,34.8253 9.17824,-0.8404 13.60558,-6.4426 14.35502,-15.6439 8.62837,14.6373 12.85728,13.4061 17.67523,14.2107 2.07693,-22.3459 -5.89028,-24.6068 -10.6442,-33.3006 3.23303,-6.2719 5.6405,-16.47691 8.43073,-24.82296 l 11.55563,2.77505 -9.99318,-15.27801 c 3.44946,-18.36063 2.26103,-32.82492 0.84633,-47.08432 l 11.88114,1.70772 -12.92277,-11.55762 c -2.37021,-20.54136 -8.15946,-37.31857 -16.95911,-54.6166 z m 1.36714,24.67048 c 3.66832,0 6.64042,2.78438 6.64042,6.22099 0,3.43661 -2.9721,6.22099 -6.64042,6.22099 -3.66831,0 -6.64042,-2.78438 -6.64042,-6.22099 0,-3.43661 2.97211,-6.22099 6.64042,-6.22099 z m 0,2.95803 c -1.92496,0 -3.48296,1.45959 -3.48296,3.26296 0,1.80337 1.558,3.26296 3.48296,3.26296 1.92496,0 3.48297,-1.45959 3.48297,-3.26296 0,-1.80337 -1.55801,-3.26296 -3.48297,-3.26296 z m -17.34972,15.39998 c 6.58545,3.81072 15.70553,4.67647 25.16198,1.95168 -3.07229,1.79422 -12.6914,6.94169 -25.09688,1.37228 l -0.0651,-3.32396 z m 25.91065,8.87405 c 6.63095,23.78444 5.63285,48.12867 0.39062,71.44985 1.31341,-22.79438 1.2697,-46.81269 -0.39062,-71.44985 z m -23.04616,2.77506 c -1.01978,22.51518 -1.5158,40.08721 3.51552,71.44984 -5.64675,-12.4494 -10.90746,-54.49004 -3.51552,-71.44984 z"
           id="path2996-7-1"
           inkscape:connector-curvature="0" />
      </g>
    </g>
  </g>
</svg>
